<svg width="327" height="92" viewBox="0 0 327 92" fill="none" xmlns="http://www.w3.org/2000/svg">
<g clip-path="url(#clip0_1771_20052)">
<rect width="327" height="92" rx="6" fill="url(#paint0_linear_1771_20052)"/>
<rect width="327" height="92" rx="6" fill="black" fill-opacity="0.37"/>
<path opacity="0.57" d="M250 102.902H348.6V4.30177H250V102.902Z" fill="white"/>
<path d="M24.6943 23.3359C26.7783 23.3359 28.0889 23.9912 28.0996 25.1191C28.0889 26.2363 26.7783 26.9023 24.6943 26.8916C22.6318 26.9023 21.3105 26.2363 21.3105 25.1191C21.3105 23.9912 22.6318 23.3359 24.6943 23.3359ZM24.6943 24.1094C23.2334 24.1094 22.3203 24.4854 22.3311 25.1191C22.3203 25.7422 23.2334 26.1074 24.6943 26.1074C26.166 26.1074 27.0791 25.7422 27.0898 25.1191C27.0791 24.4854 26.166 24.1094 24.6943 24.1094ZM28.0244 17.7607V18.5664C28.0244 19.3398 28.0244 20.1348 27.7559 21.123L26.7568 21.0156C27.0146 20.0327 27.0146 19.3237 27.0146 18.5771H21.3857V17.7607H28.0244ZM29.1201 21.7139V22.541H20.3652V21.7139H23.8779V19.9092H24.877V21.7139H29.1201ZM37.8857 17.2988V24.3887H36.8652V21.8857H34.4805C34.0239 22.4282 33.3257 22.7559 32.5254 22.7559C31.0752 22.7559 30.001 21.7461 30.001 20.3281C30.001 18.8994 31.0752 17.8896 32.5254 17.8789C33.3203 17.8843 34.0132 18.2119 34.4697 18.749H36.8652V17.2988H37.8857ZM38.1436 25.8818V26.709H31.6338V23.6475H32.6543V25.8818H38.1436ZM32.5254 18.792C31.623 18.792 30.9785 19.415 30.9785 20.3281C30.9785 21.2412 31.623 21.8535 32.5254 21.8535C33.3955 21.8535 34.0508 21.2412 34.0508 20.3281C34.0508 19.415 33.3955 18.792 32.5254 18.792ZM34.9209 19.5762C34.9854 19.8071 35.0283 20.0596 35.0283 20.3281C35.0283 20.5859 34.9907 20.833 34.9209 21.0586H36.8652V19.5762H34.9209ZM43.751 17.4492C45.9209 17.4492 47.1885 18.0293 47.1885 19.1035C47.1885 20.1777 45.9209 20.7686 43.751 20.7686C41.5811 20.7686 40.3135 20.1777 40.3135 19.1035C40.3135 18.0293 41.5811 17.4492 43.751 17.4492ZM43.751 18.2012C42.2148 18.2012 41.3662 18.5342 41.377 19.1035C41.3662 19.6943 42.2148 20.0059 43.751 20.0059C45.2871 20.0059 46.1357 19.6943 46.1357 19.1035C46.1357 18.5342 45.2871 18.2012 43.751 18.2012ZM48.1445 21.3594V22.1758H39.3682V21.3594H48.1445ZM47.0381 22.917V25.1729H41.4307V26.0322H47.3066V26.8164H40.4316V24.4316H46.0283V23.6797H40.4209V22.917H47.0381ZM59.5527 17.75V18.5664H56.6201C56.6792 19.6138 58.0649 20.5376 59.8535 20.7578L59.4668 21.5635C57.8179 21.3486 56.4644 20.5806 55.9434 19.501C55.4224 20.5752 54.0742 21.3486 52.4307 21.5635L52.0439 20.7578C53.8433 20.5376 55.2129 19.6138 55.2666 18.5664H52.3662V17.75H59.5527ZM60.3584 22.1865V23.0137H56.5342V24.8828H55.5244V23.0137H51.5498V22.1865H60.3584ZM59.3809 25.8818V26.709H52.6455V23.959H53.666V25.8818H59.3809ZM69.0381 17.2881V26.9346H68.0176V17.2881H69.0381ZM62.625 18.0938V20.5645H65.2139V18.0938H66.2236V24.625H61.6045V18.0938H62.625ZM62.625 23.7871H65.2139V21.3701H62.625V23.7871ZM78.0723 17.2881V21.1875H79.6191V22.0361H78.0723V26.9131H77.0625V17.2881H78.0723ZM76.2246 18.792V19.6299H70.5205V18.792H72.8945V17.417H73.915V18.792H76.2246ZM73.4102 20.3389C74.7852 20.3389 75.7949 21.2627 75.8057 22.5732C75.7949 23.8945 74.7852 24.8076 73.4102 24.8184C72.0244 24.8076 71.0146 23.8945 71.0146 22.5732C71.0146 21.2627 72.0244 20.3389 73.4102 20.3389ZM73.4102 21.1768C72.5938 21.1768 71.9814 21.7461 71.9922 22.5732C71.9814 23.4111 72.5938 23.9697 73.4102 23.959C74.2266 23.9697 74.8281 23.4111 74.8281 22.5732C74.8281 21.7461 74.2266 21.1768 73.4102 21.1768ZM87.8691 18.2119V19.1572C87.8691 20.3496 87.8691 21.6816 87.5039 23.6475L86.4727 23.54C86.8486 21.6816 86.8486 20.3174 86.8486 19.1572V19.0391H81.0049V18.2119H87.8691ZM88.8574 24.7646V25.6133H80.0811V24.7646H83.4219V21.3701H84.4316V24.7646H88.8574ZM95.6143 23.6475C95.6143 24.4746 96.0225 25.3501 96.8926 25.8711C97.7788 25.3071 98.2139 24.3833 98.2139 23.6475V23.1855H99.2129V23.6475C99.2129 24.6465 99.8682 25.6133 101.125 26.0215L100.62 26.7734C99.6694 26.4458 99.0249 25.8066 98.6865 25.0117C98.3804 25.7905 97.8057 26.4941 96.9248 26.8594C96.001 26.5103 95.4155 25.8281 95.1201 25.0439C94.771 25.8013 94.1372 26.4404 93.2295 26.7734L92.7139 26.0215C93.9492 25.5811 94.6152 24.582 94.626 23.6475V23.1855H95.6143V23.6475ZM100.255 17.2988V22.7773H99.2344V17.2988H100.255ZM95.0342 17.8252C96.5059 17.8252 97.5908 18.7598 97.5908 20.1025C97.5908 21.4346 96.5059 22.3584 95.0342 22.3584C93.5625 22.3584 92.4668 21.4346 92.4668 20.1025C92.4668 18.7598 93.5625 17.8252 95.0342 17.8252ZM95.0342 18.6953C94.1211 18.6846 93.4658 19.2539 93.4658 20.1025C93.4658 20.9404 94.1211 21.5098 95.0342 21.5098C95.9365 21.5098 96.5918 20.9404 96.5918 20.1025C96.5918 19.2539 95.9365 18.6846 95.0342 18.6953ZM109.568 20.1025V20.9189H102.94V17.6318H103.95V20.1025H109.568ZM110.578 22.1328V22.9492H101.77V22.1328H110.578ZM109.633 25.8496V26.6875H102.865V23.8623H103.886V25.8496H109.633ZM118.033 18.373V20.876H119.322V17.4707H120.3V26.4404H119.322V21.7139H118.033V24.3779H114.295V18.373H118.033ZM115.262 19.1787V23.5615H117.077V19.1787H115.262ZM122.255 17.2881V26.9131H121.277V17.2881H122.255ZM131.45 17.2881V26.9346H130.43V17.2881H131.45ZM126.305 18.0078C127.733 18.0078 128.786 19.3184 128.786 21.3809C128.786 23.4541 127.733 24.7646 126.305 24.7646C124.854 24.7646 123.812 23.4541 123.812 21.3809C123.812 19.3184 124.854 18.0078 126.305 18.0078ZM126.305 18.9209C125.413 18.9209 124.801 19.8662 124.801 21.3809C124.801 22.9062 125.413 23.8516 126.305 23.8516C127.186 23.8516 127.798 22.9062 127.798 21.3809C127.798 19.8662 127.186 18.9209 126.305 18.9209ZM137.896 18.2656C137.885 21.1016 136.961 23.626 133.545 25.3662L132.976 24.5928C134.662 23.728 135.704 22.6914 136.284 21.4668L133.169 21.7676L133.008 20.8867L136.606 20.6611C136.751 20.167 136.843 19.6406 136.886 19.0928H133.502V18.2656H137.896ZM141 17.2881V26.9131H139.99V21.9395H137.874V21.1016H139.99V17.2881H141ZM149.991 17.2881V21.0479H151.538V21.9072H149.991V26.9346H148.981V17.2881H149.991ZM147.273 18.1582V21.6924H143.9V23.7764C145.555 23.771 146.779 23.7119 148.187 23.4541L148.283 24.2812C146.779 24.5605 145.479 24.625 143.675 24.6357H142.891V20.8652H146.264V18.9854H142.869V18.1582H147.273ZM156.909 18.1045V18.9209H159.004V17.2988H160.024V24.3135H159.004V21.8213H156.909V22.6592H152.44V18.1045H156.909ZM153.45 18.9316V21.8535H155.91V18.9316H153.45ZM160.239 25.8818V26.709H153.74V23.6689H154.771V25.8818H160.239ZM156.909 20.9834H159.004V19.7588H156.909V20.9834ZM163.086 23.6904C163.097 22.2832 163.516 21.8535 164.225 21.4131C164.676 21.1338 165.02 20.7471 165.02 20.1777C165.02 19.501 164.504 19.082 163.859 19.082C163.279 19.082 162.721 19.4365 162.667 20.2314H161.507C161.55 18.8672 162.581 18.1152 163.859 18.1152C165.256 18.1152 166.19 18.9531 166.19 20.1777C166.19 21.0371 165.782 21.6172 165.095 22.0361C164.45 22.4229 164.203 22.8203 164.182 23.6904V23.7549H163.086V23.6904ZM163.677 26.0752C163.258 26.0752 162.903 25.7314 162.914 25.3125C162.903 24.8936 163.258 24.5498 163.677 24.5498C164.085 24.5498 164.439 24.8936 164.439 25.3125C164.439 25.7314 164.085 26.0752 163.677 26.0752Z" fill="white"/>
<path d="M33.3594 47.2188V48.6562H27.7344V53.3906H26.0156V48.6562H20.4531V47.2188H33.3594ZM26.875 39.7656C29.875 39.7812 31.9688 41 31.9688 42.9375C31.9688 44.8594 29.875 46.0625 26.875 46.0625C23.8594 46.0625 21.7969 44.8594 21.8125 42.9375C21.7969 41 23.8594 39.7812 26.875 39.7656ZM26.875 41.1719C24.875 41.1719 23.5781 41.8281 23.5938 42.9375C23.5781 44.0312 24.875 44.6875 26.875 44.6875C28.875 44.6875 30.1719 44.0312 30.1719 42.9375C30.1719 41.8281 28.875 41.1719 26.875 41.1719ZM45.9025 39.2656V53.4062H44.1838V39.2656H45.9025ZM41.5588 40.5V45.7969H36.6994V48.6406C38.9259 48.625 40.8478 48.5156 43.0431 48.1406L43.1994 49.5625C40.7931 49.9844 38.6838 50.0625 36.1525 50.0625H34.9181V44.4219H39.7931V41.9062H34.9025V40.5H41.5588ZM52.3831 40.25C54.6175 40.2344 56.2581 41.6562 56.2738 43.6562C56.2581 45.6719 54.6175 47.0781 52.3831 47.0781C50.1644 47.0781 48.5081 45.6719 48.5081 43.6562C48.5081 41.6562 50.1644 40.2344 52.3831 40.25ZM52.3831 41.75C51.1488 41.75 50.2269 42.4844 50.2269 43.6562C50.2269 44.8438 51.1488 45.5625 52.3831 45.5625C53.6331 45.5625 54.5706 44.8438 54.5706 43.6562C54.5706 42.4844 53.6331 41.75 52.3831 41.75ZM59.5706 39.2656V53.4062H57.8363V39.2656H59.5706ZM47.8675 49.0312C50.4144 49.0312 53.9456 49 56.9925 48.5625L57.1331 49.8281C53.9613 50.4375 50.5706 50.4531 48.0863 50.4531L47.8675 49.0312ZM26.8281 72.0938C29.8906 72.1094 31.8281 73.0781 31.8438 74.75C31.8281 76.3906 29.8906 77.375 26.8281 77.375C23.7812 77.375 21.8281 76.3906 21.8281 74.75C21.8281 73.0781 23.7812 72.1094 26.8281 72.0938ZM26.8281 73.4062C24.7969 73.4062 23.5625 73.8906 23.5781 74.75C23.5625 75.5781 24.7969 76.0312 26.8281 76.0312C28.875 76.0312 30.1094 75.5781 30.125 74.75C30.1094 73.8906 28.875 73.4062 26.8281 73.4062ZM31.75 63.9375V65.1094C31.75 66.2188 31.75 67.4062 31.3594 68.8594L29.6406 68.7031C29.9922 67.3281 30.0156 66.3359 30.0156 65.3125H21.9688V63.9375H31.75ZM33.3125 69.6719V71.0781H20.5V69.6719H25.4688V67.1094H27.1875V69.6719H33.3125ZM45.965 63.2812V73.6406H44.2306V70.1406H40.8713C40.1916 70.8984 39.1916 71.3594 38.0588 71.3594C35.9338 71.3594 34.3244 69.8281 34.3244 67.75C34.3244 65.6406 35.9338 64.125 38.0588 64.125C39.1838 64.125 40.1759 64.5781 40.8556 65.3281H44.2306V63.2812H45.965ZM46.3244 75.7031V77.1094H36.6994V72.5781H38.4338V75.7031H46.3244ZM38.0588 65.6719C36.84 65.6719 35.9806 66.4844 35.9806 67.75C35.9806 69 36.84 69.8125 38.0588 69.8125C39.215 69.8125 40.09 69 40.1056 67.75C40.09 66.4844 39.215 65.6719 38.0588 65.6719ZM41.6213 66.7344C41.7072 67.0547 41.7619 67.3906 41.7619 67.75C41.7619 68.0938 41.715 68.4219 41.6369 68.7344H44.2306V66.7344H41.6213ZM64.3325 69.8125V71.2344H51.4419V69.8125H64.3325ZM62.8481 67.3125V68.7031H53.02V63.7188H62.77V65.125H54.7544V67.3125H62.8481ZM57.8638 72.2188C60.9106 72.2031 62.7388 73.1406 62.7544 74.7812C62.7388 76.4375 60.9106 77.375 57.8638 77.375C54.7856 77.375 52.9419 76.4375 52.9419 74.7812C52.9419 73.1406 54.7856 72.2031 57.8638 72.2188ZM57.8638 73.5469C55.8013 73.5469 54.6919 73.9844 54.7075 74.7812C54.6919 75.6094 55.8013 76.0312 57.8638 76.0312C59.8794 76.0312 61.0044 75.6094 61.02 74.7812C61.0044 73.9844 59.8794 73.5469 57.8638 73.5469ZM78.0006 70.9062V72.3125H65.0944V70.9062H70.6881V69.7344H66.735V65.9844H74.6725V64.9375H66.6881V63.5781H76.4069V67.25H68.4538V68.375H76.6881V69.7344H72.4069V70.9062H78.0006ZM76.485 73.2031V77.2969H74.735V74.5781H66.5319V73.2031H76.485ZM89.8406 63.2656V68.8906H92.0125V70.3281H89.8406V77.3906H88.1219V63.2656H89.8406ZM87.0281 65.4375V66.8281H78.7V65.4375H82.0438V63.4688H83.7781V65.4375H87.0281ZM82.9188 67.75C84.95 67.75 86.4656 69.125 86.4656 71.0781C86.4656 73.0312 84.95 74.3906 82.9188 74.3906C80.8563 74.3906 79.3406 73.0312 79.3563 71.0781C79.3406 69.125 80.8563 67.75 82.9188 67.75ZM82.9188 69.1719C81.8094 69.1719 81.0125 69.9219 81.0125 71.0781C81.0125 72.2344 81.8094 72.9688 82.9188 72.9531C83.9969 72.9688 84.7938 72.2344 84.8094 71.0781C84.7938 69.9219 83.9969 69.1719 82.9188 69.1719ZM104.274 63.2656V77.4062H102.54V69.8906H100.118V68.4688H102.54V63.2656H104.274ZM99.3056 64.5V69.6719H94.6806V72.6406C96.7744 72.6328 98.4697 72.5625 100.368 72.2188L100.509 73.6406C98.3994 74.0156 96.5244 74.0938 94.0869 74.0938H92.9619V68.2656H97.6025V65.9062H92.915V64.5H99.3056ZM120.814 63.2656V68.7812H122.908V70.2344H120.814V77.3594H119.079V63.2656H120.814ZM117.079 64.7344C117.079 68.8906 115.361 72.5312 110.658 74.8438L109.673 73.5C113.111 71.7891 114.97 69.3828 115.329 66.1719H110.439V64.7344H117.079ZM135.216 63.2656V77.3906H133.466V63.2656H135.216ZM130.997 64.7656C130.997 68.9688 129.372 72.5469 124.419 74.8906L123.513 73.5C127.208 71.7422 128.927 69.3516 129.232 66.1406H124.232V64.7656H130.997Z" fill="white"/>
<path fill-rule="evenodd" clip-rule="evenodd" d="M299.83 70.5455C299.39 70.1062 299.39 69.3938 299.83 68.9545L305.784 63L299.83 57.0455C299.39 56.6062 299.39 55.8938 299.83 55.4545C300.269 55.0152 300.981 55.0152 301.42 55.4545L308.17 62.2045C308.61 62.6438 308.61 63.3562 308.17 63.7955L301.42 70.5455C300.981 70.9848 300.269 70.9848 299.83 70.5455Z" fill="white"/>
</g>
<defs>
<linearGradient id="paint0_linear_1771_20052" x1="315" y1="11.9259" x2="-11.3365" y2="74.6377" gradientUnits="userSpaceOnUse">
<stop stop-color="#990040"/>
<stop offset="0.72" stop-color="#FB247F"/>
</linearGradient>
<clipPath id="clip0_1771_20052">
<rect width="327" height="92" rx="6" fill="white"/>
</clipPath>
</defs>
</svg>
