<svg width="48" height="48" viewBox="0 0 48 48" fill="none" xmlns="http://www.w3.org/2000/svg">
<path d="M48 24C48 37.2548 37.2548 48 24 48C10.7452 48 0 37.2548 0 24C0 10.7452 10.7452 0 24 0C37.2548 0 48 10.7452 48 24Z" fill="#2A2A2A"/>
<path fill-rule="evenodd" clip-rule="evenodd" d="M24 47C36.7025 47 47 36.7025 47 24C47 11.2975 36.7025 1 24 1C11.2975 1 1 11.2975 1 24C1 36.7025 11.2975 47 24 47ZM24 48C37.2548 48 48 37.2548 48 24C48 10.7452 37.2548 0 24 0C10.7452 0 0 10.7452 0 24C0 37.2548 10.7452 48 24 48Z" fill="#3E3E3E"/>
<path fill-rule="evenodd" clip-rule="evenodd" d="M26.1422 18.1082C26.6917 17.5587 27.4369 17.25 28.214 17.25C28.5988 17.25 28.9798 17.3258 29.3353 17.473C29.6907 17.6203 30.0137 17.8361 30.2858 18.1082C30.5579 18.3803 30.7737 18.7033 30.921 19.0587C30.9711 19.1798 31.013 19.3039 31.0464 19.43H33.5C33.9142 19.43 34.25 19.7658 34.25 20.18C34.25 20.5942 33.9142 20.93 33.5 20.93H31.0464C31.013 21.0561 30.9711 21.1802 30.921 21.3013C30.7737 21.6567 30.5579 21.9797 30.2858 22.2518C30.0137 22.5239 29.6907 22.7397 29.3353 22.887C28.9798 23.0342 28.5988 23.11 28.214 23.11C27.4369 23.11 26.6917 22.8013 26.1422 22.2518C25.7733 21.8829 25.5129 21.4258 25.3816 20.93H15C14.5858 20.93 14.25 20.5942 14.25 20.18C14.25 19.7658 14.5858 19.43 15 19.43H25.3816C25.5129 18.9342 25.7733 18.4771 26.1422 18.1082ZM28.214 18.75C27.8347 18.75 27.471 18.9007 27.2028 19.1688C26.9347 19.437 26.784 19.8007 26.784 20.18C26.784 20.5593 26.9347 20.923 27.2028 21.1912C27.471 21.4593 27.8347 21.61 28.214 21.61C28.4018 21.61 28.5877 21.573 28.7612 21.5011C28.9347 21.4293 29.0924 21.3239 29.2252 21.1912C29.358 21.0584 29.4633 20.9007 29.5351 20.7272C29.607 20.5537 29.644 20.3678 29.644 20.18C29.644 19.9922 29.607 19.8063 29.5351 19.6328C29.4633 19.4593 29.358 19.3016 29.2252 19.1688C29.0924 19.036 28.9347 18.9307 28.7612 18.8589C28.5877 18.787 28.4018 18.75 28.214 18.75ZM16.8922 24.7152C17.4417 24.1657 18.1869 23.857 18.964 23.857C19.7411 23.857 20.4863 24.1657 21.0358 24.7152C21.4047 25.0841 21.6651 25.5412 21.7964 26.037H33.5C33.9142 26.037 34.25 26.3728 34.25 26.787C34.25 27.2012 33.9142 27.537 33.5 27.537H21.7964C21.6651 28.0328 21.4047 28.4899 21.0358 28.8588C20.4863 29.4083 19.7411 29.717 18.964 29.717C18.1869 29.717 17.4417 29.4083 16.8922 28.8588C16.5233 28.4899 16.2629 28.0328 16.1316 27.537H15C14.5858 27.537 14.25 27.2012 14.25 26.787C14.25 26.3728 14.5858 26.037 15 26.037H16.1316C16.2629 25.5412 16.5233 25.0841 16.8922 24.7152ZM18.964 25.357C18.5847 25.357 18.221 25.5077 17.9528 25.7758C17.6847 26.044 17.534 26.4077 17.534 26.787C17.534 27.1663 17.6847 27.53 17.9528 27.7982C18.221 28.0663 18.5847 28.217 18.964 28.217C19.3433 28.217 19.707 28.0663 19.9752 27.7982C20.2433 27.53 20.394 27.1663 20.394 26.787C20.394 26.4077 20.2433 26.044 19.9752 25.7758C19.707 25.5077 19.3433 25.357 18.964 25.357Z" fill="#F4F4F4"/>
</svg>
