<svg width="24" height="24" viewBox="0 0 24 24" fill="none" xmlns="http://www.w3.org/2000/svg">
<g id="button_delete_24">
<path id="Union" fill-rule="evenodd" clip-rule="evenodd" d="M4.72649 17.0007C4.33596 17.3912 4.33596 18.0244 4.72649 18.4149C5.11701 18.8054 5.75018 18.8054 6.1407 18.4149L11.5707 12.9849L17.0007 18.415C17.3912 18.8055 18.0244 18.8055 18.4149 18.415C18.8054 18.0244 18.8054 17.3913 18.4149 17.0008L12.9849 11.5707L18.4149 6.1407C18.8054 5.75018 18.8054 5.11701 18.4149 4.72649C18.0244 4.33596 17.3912 4.33596 17.0007 4.72649L11.5707 10.1565L6.1407 4.72654C5.75018 4.33601 5.11701 4.33601 4.72649 4.72654C4.33596 5.11706 4.33596 5.75023 4.72649 6.14075L10.1565 11.5707L4.72649 17.0007Z" fill="white"/>
</g>
</svg>
