<svg width="32" height="32" viewBox="0 0 32 32" fill="none" xmlns="http://www.w3.org/2000/svg">
<g id="ic_hamburgar">
<path id="Vector (Stroke)" fill-rule="evenodd" clip-rule="evenodd" d="M7 11.125C7 10.5037 7.50368 10 8.125 10H23.875C24.4963 10 25 10.5037 25 11.125C25 11.7463 24.4963 12.25 23.875 12.25H8.125C7.50368 12.25 7 11.7463 7 11.125Z" fill="white"/>
<path id="Vector (Stroke)_2" fill-rule="evenodd" clip-rule="evenodd" d="M7 16C7 15.3787 7.50368 14.875 8.125 14.875H23.875C24.4963 14.875 25 15.3787 25 16C25 16.6213 24.4963 17.125 23.875 17.125H8.125C7.50368 17.125 7 16.6213 7 16Z" fill="white"/>
<path id="Vector (Stroke)_3" fill-rule="evenodd" clip-rule="evenodd" d="M7 20.875C7 20.2537 7.50368 19.75 8.125 19.75H23.875C24.4963 19.75 25 20.2537 25 20.875C25 21.4963 24.4963 22 23.875 22H8.125C7.50368 22 7 21.4963 7 20.875Z" fill="white"/>
</g>
</svg>
