<svg width="24" height="24" viewBox="0 0 24 24" fill="none" xmlns="http://www.w3.org/2000/svg">
<g id="ic:outline-place">
<path id="Vector" d="M11.9326 18.6798L12 18.7414L12.0675 18.6798C13.8938 17.0113 15.2503 15.4749 16.1508 14.0885C17.0507 12.703 17.5 11.4599 17.5 10.38C17.5 7.05907 15.0716 4.7 12 4.7C8.92853 4.7 6.50005 7.05907 6.50005 10.38C6.50005 11.4599 6.94944 12.703 7.84931 14.0885C8.74983 15.4749 10.1063 17.0113 11.9326 18.6798ZM12 11.9C11.0653 11.9 10.3 11.1348 10.3 10.2C10.3 9.26523 11.0653 8.5 12 8.5C12.9348 8.5 13.7 9.26523 13.7 10.2C13.7 11.1348 12.9348 11.9 12 11.9ZM12 3.1C15.7279 3.1 19.1 5.95629 19.1 10.38C19.1 11.847 18.51 13.4588 17.3162 15.2187C16.1334 16.9624 14.3622 18.8453 12 20.8684C9.63793 18.8453 7.86669 16.9624 6.68393 15.2187C5.49014 13.4588 4.90005 11.847 4.90005 10.38C4.90005 5.95629 8.27217 3.1 12 3.1Z" fill="#EEEEEE" stroke="#3E3E3E" stroke-width="0.2"/>
</g>
</svg>
