<svg width="22" height="22" viewBox="0 0 22 22" fill="none" xmlns="http://www.w3.org/2000/svg">
<path d="M10.9987 17.6654C9.13758 17.6654 7.5612 17.0195 6.26953 15.7279C4.97786 14.4362 4.33203 12.8598 4.33203 10.9987C4.33203 9.13759 4.97786 7.5612 6.26953 6.26953C7.5612 4.97787 9.13758 4.33203 10.9987 4.33203C11.957 4.33203 12.8737 4.52981 13.7487 4.92537C14.6237 5.32092 15.3737 5.88703 15.9987 6.6237V5.16537C15.9987 4.92926 16.0787 4.73148 16.2387 4.57203C16.3987 4.41259 16.5965 4.33259 16.832 4.33203C17.0676 4.33148 17.2656 4.41148 17.4262 4.57203C17.5867 4.73259 17.6665 4.93037 17.6654 5.16537V9.33203C17.6654 9.56814 17.5854 9.7662 17.4254 9.9262C17.2654 10.0862 17.0676 10.1659 16.832 10.1654H12.6654C12.4292 10.1654 12.2315 10.0854 12.072 9.92536C11.9126 9.76536 11.8326 9.56759 11.832 9.33203C11.8315 9.09648 11.9115 8.8987 12.072 8.7387C12.2326 8.5787 12.4304 8.4987 12.6654 8.4987H15.332C14.8876 7.72092 14.2801 7.10981 13.5095 6.66537C12.739 6.22092 11.902 5.9987 10.9987 5.9987C9.6098 5.9987 8.42925 6.48481 7.45703 7.45703C6.48481 8.42925 5.9987 9.60981 5.9987 10.9987C5.9987 12.3876 6.48481 13.5681 7.45703 14.5404C8.42925 15.5126 9.6098 15.9987 10.9987 15.9987C11.9431 15.9987 12.8079 15.7592 13.5929 15.2804C14.3779 14.8015 14.9854 14.159 15.4154 13.3529C15.5265 13.1584 15.6829 13.0231 15.8845 12.947C16.0862 12.8709 16.2909 12.8673 16.4987 12.9362C16.7209 13.0056 16.8806 13.1515 16.9779 13.3737C17.0751 13.5959 17.0681 13.8042 16.957 13.9987C16.3876 15.1098 15.5751 15.9987 14.5195 16.6654C13.464 17.332 12.2904 17.6654 10.9987 17.6654Z" fill="#F4F4F4"/>
</svg>
