<svg width="24" height="24" viewBox="0 0 24 24" fill="none" xmlns="http://www.w3.org/2000/svg">
<g id="icon_search">
<path id="Union" fill-rule="evenodd" clip-rule="evenodd" d="M6.96447 6.96447C7.90215 6.02678 9.17392 5.5 10.5 5.5C11.8261 5.5 13.0979 6.02678 14.0355 6.96447C14.9732 7.90215 15.5 9.17392 15.5 10.5C15.5 11.8261 14.9732 13.0979 14.0355 14.0355C13.0979 14.9732 11.8261 15.5 10.5 15.5C9.17392 15.5 7.90215 14.9732 6.96447 14.0355C6.02678 13.0979 5.5 11.8261 5.5 10.5C5.5 9.17392 6.02678 7.90215 6.96447 6.96447ZM5.90381 5.90381C4.68482 7.12279 4 8.77609 4 10.5C4 12.2239 4.68482 13.8772 5.90381 15.0962C7.12279 16.3152 8.77609 17 10.5 17C11.9721 17 13.3926 16.5007 14.5353 15.5958L18.4693 19.5298C18.538 19.6035 18.6208 19.6626 18.7128 19.7036C18.8048 19.7446 18.9041 19.7666 19.0048 19.7684C19.1055 19.7702 19.2055 19.7517 19.2989 19.714C19.3923 19.6762 19.4772 19.6201 19.5484 19.5489C19.6196 19.4776 19.6757 19.3928 19.7135 19.2994C19.7512 19.206 19.7697 19.106 19.7679 19.0053C19.7662 18.9046 19.7441 18.8053 19.7031 18.7133C19.6621 18.6213 19.603 18.5385 19.5293 18.4698L15.5953 14.5358C16.5005 13.3931 17 11.9723 17 10.5C17 8.77609 16.3152 7.12279 15.0962 5.90381C13.8772 4.68482 12.2239 4 10.5 4C8.77609 4 7.12279 4.68482 5.90381 5.90381Z" fill="#F4F4F4"/>
</g>
</svg>
