<svg width="40" height="40" viewBox="0 0 40 40" fill="none" xmlns="http://www.w3.org/2000/svg">
<path d="M27.7958 0C27.2817 0.260038 20.0452 3.94136 20.0452 3.94136L19.9998 3.96686C19.9998 3.96686 12.718 0.260038 12.209 0C12.4811 0.525175 19.8285 14.6692 19.9998 14.9904C20.1661 14.6641 27.5236 0.525175 27.7958 0Z" fill="#FAC10B"/>
<path d="M30.5222 11.5896L30.4013 11.4877C30.4013 11.4877 35.8488 9.1728 35.9647 9.12182V1.2085C35.6976 1.32577 26.3597 5.34871 26.2992 5.37421C26.269 5.43029 21.0633 15.4035 20.9474 15.633C25.0444 16.1327 28.1285 19.6049 28.1285 23.7961C28.1285 28.329 24.48 32.0256 20 32.0256C15.52 32.0256 11.8665 28.3341 11.8665 23.7961C11.8665 19.6049 14.9455 16.1276 19.0425 15.633C18.9216 15.4035 13.731 5.43029 13.6907 5.37421C13.6353 5.34871 4.3074 1.32067 4.04031 1.2085V9.12182C4.16126 9.1728 9.59874 11.4877 9.59874 11.4877L9.4778 11.5896C5.99559 14.6744 4 19.1205 4 23.8012C4 32.7292 11.171 40.0001 20 40.0001C28.829 40.0001 36 32.7292 36 23.8012C36 19.1307 33.9994 14.6744 30.5222 11.5896Z" fill="#FAC10B"/>
</svg>
