<svg width="24" height="24" viewBox="0 0 24 24" fill="none" xmlns="http://www.w3.org/2000/svg">
<g id="Frame 1171284256">
<path id="Vector" d="M9.9 5V6.4H14.1V5H15.5V6.4H18.3C18.4857 6.4 18.6637 6.47375 18.795 6.60503C18.9263 6.7363 19 6.91435 19 7.1V18.3C19 18.4857 18.9263 18.6637 18.795 18.795C18.6637 18.9263 18.4857 19 18.3 19H5.7C5.51435 19 5.3363 18.9263 5.20503 18.795C5.07375 18.6637 5 18.4857 5 18.3V7.1C5 6.91435 5.07375 6.7363 5.20503 6.60503C5.3363 6.47375 5.51435 6.4 5.7 6.4H8.5V5H9.9ZM17.6 12H6.4V17.6H17.6V12ZM8.5 7.8H6.4V10.6H17.6V7.8H15.5V9.2H14.1V7.8H9.9V9.2H8.5V7.8Z" fill="#626262"/>
</g>
</svg>
