<svg width="40" height="40" viewBox="0 0 40 40" fill="none" xmlns="http://www.w3.org/2000/svg">
<g clip-path="url(#clip0_2356_20905)">
<path d="M11.4939 21.4644C11.5336 24.4704 11.6868 27.8992 12.203 30.6214C12.203 30.633 12.203 30.6561 12.2201 30.6735C12.6285 31.2874 13.0597 33.7316 13.3944 34.4961C13.4057 34.5193 13.4284 34.5425 13.4681 34.5714C13.7007 34.7336 14.5063 35.058 15.0338 34.9942C15.0792 34.9942 15.0962 34.9595 15.1019 34.9363C15.221 34.305 15.1416 33.7142 15.0735 32.5559C14.892 29.7062 14.6878 25.1712 14.7162 22.4201C16.9002 23.6595 25.092 29.6599 29.3694 30.8994C29.4602 30.9283 29.5679 30.911 29.6417 30.8415C29.8686 30.5982 30.0161 30.5577 30.2714 30.4476C30.3905 30.3897 30.5323 30.0711 30.4983 29.7005C33.2043 29.5962 36.9598 28.5363 38.9283 26.011C40.2842 24.2735 40.2615 21.8524 39.4162 21.0358C39.3368 20.9663 39.1779 20.9257 39.0645 20.8041C37.771 19.4894 36.0238 19.136 34.1404 19.2519C32.2342 19.3677 30.7025 20.1844 29.5226 20.9489C29.5226 20.9489 29.5112 20.9489 29.5055 20.9431C29.4034 19.0839 30.1352 16.715 29.4942 15.186C29.4715 15.1223 29.4261 15.1049 29.3637 15.1049C28.7908 15.1165 27.6845 15.5219 27.4463 15.7362C27.3895 15.7825 27.3612 15.8347 27.3612 15.9331C27.3612 16.3675 27.225 18.6322 27.0094 18.8465C26.9697 18.887 26.9811 18.9333 26.9697 19.0202C26.7201 21.7424 26.7258 24.0534 26.9527 26.011C26.9641 26.0747 27.225 26.3527 27.5314 26.4628C27.7413 26.5439 28.5922 26.3643 29.3183 26.0863C29.4205 26.0458 29.5396 26.04 29.602 26.04C29.6757 26.0342 29.7041 25.9473 29.6984 25.8546C29.6928 25.7272 29.6871 25.3565 29.7154 25.2175C30.1296 23.4916 31.8598 21.2443 34.0382 20.9026C35.4224 20.6825 36.3415 21.169 36.9768 21.8814C37.1413 22.0667 37.3399 23.4568 36.5514 24.9627C35.9841 26.0516 34.8381 27.0072 33.2894 27.6038C31.6613 28.2351 30.0218 28.3683 28.3256 28.3046C26.6691 27.2852 23.895 24.9279 21.4613 23.9897C21.0699 23.8391 20.3834 23.2193 20.0771 22.9703C18.8971 21.9972 16.367 20.3176 14.8693 19.2866C14.858 19.2751 14.858 19.2693 14.858 19.2461C14.841 19.0376 14.858 18.997 14.8807 18.9218C14.8977 18.8522 14.9431 18.8233 14.9941 18.7885C15.5217 18.4294 17.7398 17.19 17.9327 16.9004C18.0008 16.8309 18.1313 16.7556 18.1823 16.7266C21.518 14.6647 27.3725 11.8672 29.931 9.16241C29.9594 9.12766 29.9651 9.06974 29.9651 9.00603C29.9651 8.89019 29.9877 8.76856 30.0161 8.68169C30.1239 8.29942 30.1352 8.01562 30.0445 7.6739C30.0331 7.62177 29.9821 7.56964 29.9424 7.56385C28.5752 7.42485 26.7598 8.27625 25.075 9.89219C24.5757 10.3729 24.173 10.5467 23.7248 10.8073C21.813 11.9194 17.2803 14.7863 15.1189 16.2111C15.0906 16.2285 15.0622 16.2111 15.0622 16.1822C15.1927 13.5874 15.6806 9.8864 16.2195 7.031C16.2365 6.93253 16.2025 6.86303 16.1798 6.82249C16.0039 6.55027 15.9018 6.22592 15.8337 6.16221C15.8224 6.15063 15.8167 6.14484 15.8054 6.13905C15.4366 5.94791 15.1473 6.01742 14.875 6.08692C14.6027 6.15063 14.268 6.37072 13.8368 6.47498C13.7744 6.48656 13.7461 6.52131 13.7234 6.56765C12.6625 9.19137 11.7322 13.6801 11.5563 17.161C11.5563 17.1726 11.5563 17.1958 11.5336 17.1842C9.40627 15.7825 7.4491 14.7863 6.26345 14.1956C6.22941 14.184 6.21239 14.1782 6.18403 14.1724C5.78692 14.1203 5.32174 13.8249 4.89627 13.5643C4.41974 13.2689 3.48938 12.597 2.90506 12.2553C2.83131 12.2089 2.76324 12.1974 2.70651 12.2089C2.24133 12.29 1.26558 12.9561 0.998949 13.3847C0.913855 13.5179 1.08972 13.8133 1.06702 13.9929C1.06702 14.016 1.06702 14.0334 1.08404 14.045C1.62865 14.6126 3.05256 15.6204 4.57858 16.4544C6.3372 17.4216 8.12985 18.3426 8.87301 18.8233C8.90137 18.8465 8.90137 18.8522 8.91839 18.8696C9.00349 18.9739 9.07724 19.0318 9.3155 19.1766C9.66722 19.3909 9.74097 19.4141 9.84309 19.5067C9.88847 19.5531 9.86578 19.5994 9.82039 19.6342C7.95966 20.9547 4.2609 23.4105 2.49661 24.6152C2.24133 24.7889 1.24289 25.2465 1.03299 25.3276C0.584823 25.5187 0.182044 25.8199 0.023201 26.1674C-0.0051638 26.2311 0.0345469 26.2659 0.0799305 26.2832C0.363578 26.3643 0.431654 26.5728 0.630207 26.6481C0.69261 26.6713 0.755012 26.6713 0.851452 26.6713C1.22019 26.6829 1.86691 26.4338 3.02419 25.9126C4.34599 25.316 8.45888 22.7386 8.9581 22.4432C8.96945 22.4374 8.97512 22.4316 8.99214 22.4316C9.23041 22.4316 9.45165 22.2521 9.6729 22.0783C9.91683 21.8872 10.4955 21.5223 10.8415 21.3659L11.5109 20.9837L11.4996 21.476L11.4939 21.4644Z" fill="#FABE00"/>
</g>
<defs>
<clipPath id="clip0_2356_20905">
<rect width="40" height="29" fill="white" transform="translate(0 6)"/>
</clipPath>
</defs>
</svg>
