<svg width="40" height="40" viewBox="0 0 40 40" fill="none" xmlns="http://www.w3.org/2000/svg">
<path d="M19.0639 0.287491C8.17663 0.776905 -0.254658 10.0002 0.243655 20.8919C0.737519 31.7791 9.96077 40.2059 20.848 39.7165C31.7397 39.2227 40.1621 29.995 39.6683 19.1122C39.1788 8.22046 29.9511 -0.206374 19.0639 0.287491Z" fill="url(#paint0_radial_2356_21035)"/>
<path d="M19.05 0.0207489C8.01593 0.519062 -0.526583 9.87134 -0.0238203 20.901C0.474493 31.9395 9.82232 40.4776 20.8609 39.9793C31.8905 39.4765 40.433 30.1287 39.9347 19.0946C39.4364 8.0605 30.0841 -0.477564 19.05 0.0207489ZM21.3948 19.4283C24.9497 22.7074 26.8985 24.4737 26.8985 24.4737C33.163 29.6926 31.0273 34.4622 28.6292 36.1218C26.8006 37.3854 24.7806 37.9771 22.1244 38.1195C21.8842 38.1506 21.4526 38.0171 21.4304 37.5945C21.4126 37.1406 22.0755 37.025 22.0755 37.025C27.993 35.8593 26.2622 31.984 24.1711 30.0041C23.2946 29.1721 15.0546 22.0667 15.0546 22.0667C7.20172 15.3038 7.83351 10.0271 7.83351 10.0271C8.2117 3.53119 13.9023 1.92502 18.2047 2.2943C18.7074 2.3388 18.9877 2.64579 18.8943 3.06402C18.8009 3.52229 18.1335 3.55343 18.1335 3.55343C16.7631 3.63352 15.5396 3.77145 14.6097 4.39879C11.1437 6.73018 12.1671 10.6989 16.7898 15.117C17.3682 15.6731 17.9866 16.256 18.6229 16.8522C18.6229 16.8522 19.5528 17.6708 21.3992 19.4283H21.3948ZM18.7074 36.2152C18.743 36.847 17.2036 37.1273 15.4461 36.9538C13.2349 36.7358 10.5965 36.0417 8.29623 34.0529C6.1873 32.2243 4.87478 29.7104 4.23854 27.5036C3.58895 25.2434 3.3131 22.6006 4.38981 22.8097C4.71906 22.8764 5.29301 24.3269 5.91145 25.3858C6.55214 26.4759 7.07715 27.0809 7.56656 27.4502C7.78902 27.6193 8.54539 25.9375 9.6399 24.9854C10.2806 24.4604 10.9791 24.2779 11.0903 25.853C11.2283 27.7795 10.8812 30.0708 11.4418 30.0708C11.9668 30.0708 13.1548 29.6748 15.7576 29.4524C16.7364 29.3678 17.2926 29.5547 16.3582 30.8717C15.8955 31.5257 15.2682 32.4556 13.791 33.5145C16.0067 35.5879 18.6629 35.3387 18.7074 36.2197V36.2152ZM20.456 16.0602C20.2869 15.4106 20.2513 14.5964 20.3848 13.5508C20.6606 11.3707 21.2479 10.343 21.9153 8.65225C22.823 6.37869 20.625 5.04837 20.9854 4.21192C21.4837 3.07737 23.0543 4.51892 24.7984 4.6257C26.3067 4.71023 27.2143 4.6346 28.3845 4.79032C29.9417 4.99498 31.8015 5.52444 32.6291 6.49882C33.3899 7.38867 32.2286 8.47428 30.8316 7.79355C29.8127 7.29523 28.5269 7.60223 29.2788 8.6656C30.1909 9.67557 30.6225 9.70672 31.5479 9.94697C34.0973 10.6188 34.1462 13.057 32.4244 14.3206C30.4623 15.7532 28.4779 15.1615 27.6815 12.3451C27.2811 10.9392 26.2889 10.2228 25.27 10.6233C24.2601 11.0192 24.8563 12.8701 25.626 14.5831C27.1654 18.5117 23.3391 18.3783 22.8941 18.3293C20.8653 17.9022 20.4515 16.0602 20.4515 16.0602H20.456Z" fill="url(#paint1_radial_2356_21035)"/>
<defs>
<radialGradient id="paint0_radial_2356_21035" cx="0" cy="0" r="1" gradientUnits="userSpaceOnUse" gradientTransform="translate(23.6225 14.4069) scale(18.7504)">
<stop stop-color="white"/>
<stop offset="1" stop-color="#CF9C51"/>
</radialGradient>
<radialGradient id="paint1_radial_2356_21035" cx="0" cy="0" r="1" gradientUnits="userSpaceOnUse" gradientTransform="translate(20.9132 11.4873) scale(41.9966)">
<stop stop-color="#00C0F3"/>
<stop offset="0.22" stop-color="#0097D6"/>
<stop offset="0.28" stop-color="#0085C9"/>
<stop offset="0.37" stop-color="#0074BD"/>
<stop offset="0.46" stop-color="#0069B5"/>
<stop offset="0.57" stop-color="#0066B3"/>
</radialGradient>
</defs>
</svg>
