<svg width="24" height="24" viewBox="0 0 24 24" fill="none" xmlns="http://www.w3.org/2000/svg">
<g clip-path="url(#clip0_2114_23188)">
<path fill-rule="evenodd" clip-rule="evenodd" d="M4.80039 12.2988C4.80024 12.2996 4.80011 12.3003 4.8 12.3009C4.81611 12.3877 4.84492 12.4717 4.8855 12.5502C4.99147 12.7746 5.11929 12.988 5.2671 13.1874C5.6253 13.6851 6.1608 14.2602 6.8376 14.8056C8.1993 15.9036 10.0299 16.8 12 16.8C13.9701 16.8 15.8016 15.9036 17.1624 14.8047C17.8392 14.2593 18.3747 13.6842 18.7329 13.1865C18.8802 12.9868 19.008 12.7734 19.1145 12.5493C19.1818 12.4001 19.1962 12.3211 19.1996 12.3021C19.1998 12.3013 19.1999 12.3006 19.2 12.3V12.2991C19.1999 12.2985 19.1998 12.2978 19.1996 12.297C19.1962 12.278 19.1818 12.199 19.1145 12.0498C19.0371 11.8779 18.9129 11.6619 18.7329 11.4126C18.3747 10.9149 17.8392 10.3398 17.1624 9.7944C15.8007 8.6964 13.9692 7.8 12 7.8C10.0308 7.8 8.1993 8.6964 6.8376 9.7962C6.1608 10.3416 5.6253 10.9167 5.2671 11.4144C5.088 11.6637 4.9629 11.8797 4.8855 12.0516C4.81822 12.2008 4.80385 12.2798 4.80039 12.2988ZM5.7081 8.3931C7.2768 7.1286 9.4953 6 12 6C14.5047 6 16.7232 7.1286 18.2919 8.3931C19.0812 9.0294 19.7319 9.7197 20.1936 10.3614C20.4123 10.6585 20.601 10.9766 20.757 11.3109C20.8893 11.6061 21 11.9508 21 12.3C21 12.6501 20.8893 12.9939 20.7561 13.2891C20.6175 13.5969 20.4249 13.9182 20.1936 14.2386C19.7319 14.8803 19.0812 15.5715 18.2919 16.2069C16.7232 17.4714 14.5047 18.6 12 18.6C9.4953 18.6 7.2768 17.4714 5.7081 16.2069C4.9188 15.5706 4.2681 14.8803 3.8064 14.2386C3.576 13.9191 3.3825 13.5969 3.243 13.2891C3.1107 12.9939 3 12.6492 3 12.3C3 11.9499 3.1107 11.607 3.2439 11.3109C3.39848 10.976 3.58697 10.6579 3.8064 10.3614C4.2681 9.7197 4.9188 9.0285 5.7081 8.3931ZM10.0908 10.3908C10.5972 9.88446 11.2839 9.6 12 9.6C12.7161 9.6 13.4028 9.88446 13.9092 10.3908C14.4155 10.8972 14.7 11.5839 14.7 12.3C14.7 13.0161 14.4155 13.7028 13.9092 14.2092C13.4028 14.7155 12.7161 15 12 15C11.2839 15 10.5972 14.7155 10.0908 14.2092C9.58446 13.7028 9.3 13.0161 9.3 12.3C9.3 11.5839 9.58446 10.8972 10.0908 10.3908Z" fill="#F4F4F4"/>
</g>
<defs>
<clipPath id="clip0_2114_23188">
<rect width="24" height="24" fill="white"/>
</clipPath>
</defs>
</svg>
