<svg width="40" height="40" viewBox="0 0 40 40" fill="none" xmlns="http://www.w3.org/2000/svg">
<g clip-path="url(#clip0_2356_20870)">
<g clip-path="url(#clip1_2356_20870)">
<path d="M37.5856 16.6587H38.6154C38.6814 16.6587 38.7372 16.608 38.7372 16.5471V14.7158C38.7372 14.6499 38.6865 14.5991 38.6154 14.5991H37.1646C35.4905 14.5991 34.6027 15.1013 34.0955 16.1768L30.9452 23.4362C30.7524 23.8724 30.4785 24.0753 29.9357 24.0753V14.7158C29.9357 14.6499 29.8799 14.5991 29.8139 14.5991H27.5007C27.4347 14.5991 27.3789 14.6499 27.3789 14.7158V25.927C27.3789 26.0386 27.4753 26.1299 27.597 26.1299H30.1893C31.8634 26.1299 32.6294 25.6226 33.1367 24.5573L36.2413 17.3892C36.4899 16.8819 36.8501 16.6587 37.5806 16.6587" fill="#D72027"/>
<path d="M9.31389 20.3673C10.2422 20.0071 11.0133 19.1853 11.0133 17.8359C11.0133 15.8219 9.17692 14.5994 6.96512 14.5994H0.12175C0.0558022 14.5994 0 14.6501 0 14.716V16.5474C0 16.6082 0.0558022 16.659 0.12175 16.659H6.48827C7.51807 16.659 8.20799 17.2525 8.20799 17.9779C8.20799 18.7034 7.513 19.2969 6.48827 19.2969H2.70894V17.9373C2.70894 17.8765 2.65314 17.8257 2.58719 17.8257H0.12175C0.0558022 17.8257 0 17.8765 0 17.9373V26.0185C0 26.0845 0.0558022 26.1352 0.12175 26.1352H6.86367C9.38491 26.1352 11.1858 25.0293 11.1858 22.7718C11.1858 21.6659 10.4908 20.7477 9.31389 20.3673ZM6.61509 24.1212H2.70387V21.4174H6.61509C7.67026 21.4174 8.38047 22.0261 8.38047 22.7668C8.38047 23.5074 7.67026 24.1212 6.61509 24.1212Z" fill="#D72027"/>
<path d="M39.9804 25.9983L36.0134 21.2247C36.0134 21.2247 35.983 21.2146 35.9779 21.2247L34.9075 23.68C34.9075 23.68 34.9024 23.7155 34.9126 23.7257L36.6475 25.9121C36.7693 26.0643 36.9063 26.1252 37.1142 26.1252H39.9094C39.9906 26.1252 40.0261 26.0491 39.9754 25.9933" fill="#D72027"/>
<path d="M15.528 17.8208H13.2096C13.1437 17.8208 13.0879 17.8715 13.0879 17.9375V26.0136C13.0879 26.0795 13.1437 26.1302 13.2096 26.1302H15.528C15.5939 26.1302 15.6497 26.0795 15.6497 26.0136V17.9375C15.6497 17.8766 15.5939 17.8208 15.528 17.8208Z" fill="#D72027"/>
<path d="M25.0549 14.5991H22.7417C22.6757 14.5991 22.6199 14.6499 22.6199 14.7158V24.0753C22.0771 24.0753 21.8032 23.8724 21.6104 23.4362L18.4601 16.1768C17.9528 15.1064 17.0651 14.5991 15.391 14.5991H13.2096C13.1437 14.5991 13.0879 14.6499 13.0879 14.7158V16.5471C13.0879 16.608 13.1437 16.6587 13.2096 16.6587H14.975C15.7055 16.6587 16.0606 16.8819 16.3143 17.3892L19.4189 24.5573C19.9262 25.6277 20.6922 26.1299 22.3663 26.1299H24.9636C25.0803 26.1299 25.1767 26.0386 25.1767 25.927V14.7158C25.1767 14.6549 25.1209 14.5991 25.0549 14.5991Z" fill="#D72027"/>
</g>
</g>
<defs>
<clipPath id="clip0_2356_20870">
<rect width="40" height="40" fill="white"/>
</clipPath>
<clipPath id="clip1_2356_20870">
<rect width="40" height="11.5308" fill="white" transform="translate(0 14.5994)"/>
</clipPath>
</defs>
</svg>
