<svg width="40" height="40" viewBox="0 0 40 40" fill="none" xmlns="http://www.w3.org/2000/svg">
<g clip-path="url(#clip0_2356_20875)">
<g clip-path="url(#clip1_2356_20875)">
<path d="M0.0562682 19.5398C-0.0152169 19.5766 -0.0193018 19.644 0.0480985 19.6889L6.21931 23.7656L7.98805 15.4468L0.0562682 19.5398Z" fill="#E42313"/>
<path d="M36.5962 15.4447H35.0358C34.9551 15.4447 34.8295 15.4753 34.757 15.5121L26.9355 19.5418C26.863 19.5786 26.86 19.646 26.9274 19.6899L32.9954 23.6838C33.0628 23.7277 33.1844 23.7645 33.2661 23.7645H34.8255C34.9061 23.7645 34.9174 23.7277 34.851 23.6838L28.6573 19.6082L36.6116 15.51C36.6841 15.4733 36.6759 15.4426 36.5952 15.4426L36.5962 15.4447Z" fill="#EF7D00"/>
<path d="M33.2547 15.4446H22.3839L20.6172 23.7665H31.487C31.5677 23.7665 31.5789 23.7297 31.5115 23.6858L25.3291 19.6111L33.2721 15.513C33.3446 15.4762 33.3364 15.4456 33.2558 15.4456L33.2547 15.4446Z" fill="#E42313"/>
<path d="M39.9334 15.4447H38.373C38.2913 15.4447 38.1667 15.4753 38.0942 15.5121L30.2727 19.5418C30.2012 19.5786 30.1981 19.646 30.2645 19.6899L36.3326 23.6838C36.4 23.7277 36.5225 23.7645 36.6032 23.7645H38.1636C38.2443 23.7645 38.2555 23.7277 38.1881 23.6838L31.9944 19.6082L39.9487 15.51C40.0212 15.4733 40.014 15.4426 39.9323 15.4426L39.9334 15.4447Z" fill="#FBBA00"/>
<path d="M32.7722 9.99951H7.17851C5.74983 9.99951 4.75006 10.8982 4.51416 12.0093C4.38447 12.6189 4.61628 13.1612 5.08604 13.5329L14.2821 19.604L14.2892 19.6V19.604L32.7896 10.0669C32.8611 10.0301 32.8549 9.99951 32.7732 9.99951H32.7722Z" fill="#E42313"/>
<path d="M28.7129 29.1289L14.2903 19.604L14.2882 19.6071L14.2821 19.604L2.50443 25.6772C1.8774 26.0469 1.41581 26.5901 1.28612 27.2008C1.04818 28.3099 1.66499 29.2096 3.09469 29.2096H28.6884C28.7701 29.2096 28.7803 29.1728 28.7129 29.1289Z" fill="#E42313"/>
</g>
</g>
<defs>
<clipPath id="clip0_2356_20875">
<rect width="40" height="40" fill="white"/>
</clipPath>
<clipPath id="clip1_2356_20875">
<rect width="40" height="19.2111" fill="white" transform="translate(0 9.99976)"/>
</clipPath>
</defs>
</svg>
