<svg width="30" height="30" viewBox="0 0 30 30" fill="none" xmlns="http://www.w3.org/2000/svg">
<g id="Frame 1171284537">
<g id="Group 1171284494">
<g id="Subtract" filter="url(#filter0_i_8242_17346)">
<path fill-rule="evenodd" clip-rule="evenodd" d="M9.21874 17.0908C9.83113 17.302 10.1435 18.0069 9.91645 18.6653C9.8032 18.9937 9.88481 19.485 10.2132 19.5982L24.2644 24.4439C24.666 24.5824 25.1039 24.3691 25.2424 23.9675L28.6648 14.0433C28.8033 13.6417 28.59 13.2038 28.1884 13.0653L13.5863 8.02966C13.5855 8.02939 13.5847 8.0298 13.5844 8.03058C13.3998 8.56581 12.9156 8.90552 12.4119 8.90046C12.4101 8.90044 12.4084 8.90161 12.4078 8.90336C12.407 8.9056 12.4046 8.90679 12.4023 8.90602L12.3873 8.90083C12.3854 8.90017 12.3834 8.89981 12.3814 8.89973C12.2755 8.89573 12.169 8.8764 12.0644 8.84035C11.4521 8.62916 11.1397 7.92421 11.3667 7.26579C11.367 7.26502 11.3666 7.26418 11.3658 7.26391L6.88558 5.71886C6.48396 5.58036 6.0461 5.79366 5.9076 6.19528L2.48516 16.1195C2.34665 16.5211 2.55995 16.959 2.96158 17.0975L6.89005 18.4522C7.21843 18.5655 7.58552 18.2289 7.69877 17.9006C7.92583 17.2421 8.60634 16.8796 9.21874 17.0908ZM9.60395 16.2941C9.47805 16.2507 9.41119 16.1135 9.4546 15.9876L9.61919 15.5103C9.6626 15.3844 9.79986 15.3176 9.92576 15.361C10.0517 15.4044 10.1185 15.5417 10.0751 15.6676L9.91052 16.1448C9.8671 16.2707 9.72985 16.3376 9.60395 16.2941ZM10.2476 14.4278C10.1217 14.3844 10.0548 14.2471 10.0982 14.1212L10.2628 13.644C10.3062 13.5181 10.4435 13.4512 10.5694 13.4946C10.6953 13.5381 10.7621 13.6753 10.7187 13.8012L10.5541 14.2785C10.5107 14.4044 10.3735 14.4712 10.2476 14.4278ZM10.8912 12.5615C10.7653 12.5181 10.6984 12.3808 10.7418 12.2549L10.9064 11.7777C10.9498 11.6518 11.0871 11.5849 11.213 11.6283C11.3389 11.6717 11.4058 11.809 11.3623 11.9349L11.1978 12.4121C11.1543 12.538 11.0171 12.6049 10.8912 12.5615ZM11.5348 10.6951C11.4089 10.6517 11.3421 10.5145 11.3855 10.3886L11.5501 9.91132C11.5935 9.78542 11.7307 9.71856 11.8566 9.76197C11.9825 9.80539 12.0494 9.94265 12.006 10.0685L11.8414 10.5458C11.798 10.6717 11.6607 10.7386 11.5348 10.6951Z" fill="white" fill-opacity="0.6"/>
</g>
</g>
</g>
<defs>
<filter id="filter0_i_8242_17346" x="2.44141" y="5.67676" width="26.2656" height="18.8096" filterUnits="userSpaceOnUse" color-interpolation-filters="sRGB">
<feFlood flood-opacity="0" result="BackgroundImageFix"/>
<feBlend mode="normal" in="SourceGraphic" in2="BackgroundImageFix" result="shape"/>
<feColorMatrix in="SourceAlpha" type="matrix" values="0 0 0 0 0 0 0 0 0 0 0 0 0 0 0 0 0 0 127 0" result="hardAlpha"/>
<feOffset/>
<feGaussianBlur stdDeviation="1.53846"/>
<feComposite in2="hardAlpha" operator="arithmetic" k2="-1" k3="1"/>
<feColorMatrix type="matrix" values="0 0 0 0 1 0 0 0 0 1 0 0 0 0 1 0 0 0 1 0"/>
<feBlend mode="normal" in2="shape" result="effect1_innerShadow_8242_17346"/>
</filter>
</defs>
</svg>
