<svg width="40" height="40" viewBox="0 0 40 40" fill="none" xmlns="http://www.w3.org/2000/svg">
<g clip-path="url(#clip0_2356_20900)">
<path fill-rule="evenodd" clip-rule="evenodd" d="M14.4046 38.641C13.3583 39.267 12.4104 39.6247 11.391 39.6247C8.8155 39.6247 6.66929 37.5053 6.53516 34.9567L11.5788 31.9609L19.3945 35.4664L14.4046 38.641Z" fill="#72A3B6"/>
<path fill-rule="evenodd" clip-rule="evenodd" d="M17.4099 25.7453L13.6719 24.0999C11.9997 23.3666 10.4258 22.7317 10.4258 20.8984C10.4258 19.9416 10.6941 19.4408 11.1591 18.949L19.0553 22.4187L17.1148 23.5723C16.5604 23.8942 16.1937 24.1893 16.1937 24.6007C16.1937 25.0567 16.7034 25.4323 17.4099 25.7364V25.7453Z" fill="#96CE8E"/>
<path fill-rule="evenodd" clip-rule="evenodd" d="M21.0673 8.49542L17.231 10.8384C16.8911 11.044 16.4351 11.366 16.4351 11.8846C16.4351 12.4748 17.3383 12.9041 18.1073 13.2797L13.3141 11.1692C11.9101 10.5433 10.4883 9.84574 10.4883 8.13772C10.4883 7.41337 10.685 6.84999 11.0248 6.34026L21.3982 0C22.6412 0.706461 23.8395 2.12833 23.8395 4.04203C23.8395 6.08987 22.8111 7.4402 21.0673 8.49542Z" fill="#72A3B6"/>
<path fill-rule="evenodd" clip-rule="evenodd" d="M29.2217 15.9892L28.2738 16.5347L20.3418 13.0382L29.5526 7.48486C30.7956 8.21815 32.0118 9.61319 32.0118 11.5358C32.0118 13.5837 30.9924 14.9966 29.2217 15.9892Z" fill="#96CE8E"/>
<path fill-rule="evenodd" clip-rule="evenodd" d="M22.5162 22.714L27.211 24.7619C28.9638 25.5488 29.5093 26.4788 29.5093 27.6414C29.5093 28.3031 29.1337 28.9827 28.5971 29.4209L20.7188 25.9155L22.0422 25.1822C23.1779 24.5472 23.5535 24.1806 23.5535 23.7692C23.5535 23.3579 23.2853 23.0538 22.5073 22.7051L22.5162 22.714Z" fill="#72A3B6"/>
<path fill-rule="evenodd" clip-rule="evenodd" d="M30.8944 40.0001C28.8913 38.4798 26.7629 37.4335 24.1696 36.271L12.2402 30.9681C9.22661 29.6267 7.23242 27.8561 7.23242 24.8514C7.23242 21.8467 8.64534 20.5232 10.4786 19.3696L11.1403 18.9583C10.6753 19.4411 10.407 19.9509 10.407 20.9077C10.407 22.732 11.9809 23.3669 13.6532 24.1092L27.5231 30.2259C29.9554 31.2721 32.1553 33.0606 32.1553 36.0832C32.1553 37.7734 31.5293 39.2757 30.8765 40.0001H30.8944Z" fill="#4C9847"/>
<path fill-rule="evenodd" clip-rule="evenodd" d="M29.4727 28.8841L28.6142 29.4296C29.1507 28.9915 29.5263 28.3118 29.5263 27.6501C29.5263 26.4875 28.9808 25.5665 27.2281 24.7706L12.3835 18.2515C9.37876 16.9101 7.50977 15.2021 7.50977 12.2063C7.50977 9.46989 8.88692 7.65455 11.0421 6.33105C10.7023 6.84078 10.5055 7.40416 10.5055 8.12851C10.5055 9.83653 11.9274 10.534 13.3314 11.16L27.7646 17.5271C30.4027 18.6986 32.5221 20.4603 32.5221 23.6528C32.5221 26.1388 31.3595 27.7306 29.4816 28.8841H29.4727Z" fill="#296085"/>
</g>
<defs>
<clipPath id="clip0_2356_20900">
<rect width="25.9691" height="40" fill="white" transform="translate(6.53516)"/>
</clipPath>
</defs>
</svg>
