<svg width="40" height="40" viewBox="0 0 40 40" fill="none" xmlns="http://www.w3.org/2000/svg">
<g clip-path="url(#clip0_2356_20865)">
<path d="M9.73576 0.484413C8.65521 1.02814 7.84971 1.95742 7.4666 3.12396L0.236741 24.9916C-0.146363 26.1384 -0.0579541 27.3741 0.482321 28.4616C1.0226 29.5392 1.9558 30.3597 3.09529 30.7452L26.8183 38.7627C27.9676 39.1483 29.1955 39.0494 30.276 38.5156C31.3566 37.9719 32.1621 37.0327 32.5452 35.876L39.7849 14.0084C40.5707 11.6259 39.2839 9.04563 36.9165 8.24487L13.1837 0.237265C12.0344 -0.148287 10.8065 -0.0593133 9.72594 0.484413" fill="white"/>
<path d="M21.3255 21.492C20.0387 22.9452 18.4277 24.1117 16.5711 24.8334L15.5004 25.2486V15.1057L16.5515 15.5209C18.4179 16.2425 20.0289 17.3992 21.3255 18.8425C22.2489 17.3498 22.8187 15.6197 22.9365 13.7414C23.2312 8.87753 20.2057 4.41897 16.0505 2.86688L12.632 1.72011C11.08 1.20604 9.43948 2.05624 8.92868 3.60833L1.66934 25.5155C1.14872 27.0775 2.01316 28.7581 3.56522 29.2722L20.0289 34.8083C21.6988 33.0091 22.7892 30.6365 22.9562 27.9771C23.1035 25.6144 22.4847 23.3802 21.3255 21.5019M11.8069 14.5125V25.8714H10.1762V14.5125H11.8069Z" fill="#00A5E3"/>
<path d="M36.3854 9.70808L21.2773 4.62671C23.3009 6.86093 24.5485 9.82671 24.5583 13.0792C24.5583 15.6495 23.7626 18.1111 22.3775 20.1773C23.7724 22.2237 24.5681 24.6853 24.5779 27.2556C24.5779 30.3301 23.4777 33.1476 21.6506 35.3423L27.3284 37.2503C28.8805 37.7742 30.521 36.9142 31.0318 35.3522L38.2911 13.4647C38.8019 11.9126 37.9375 10.2221 36.3952 9.70808M32.3775 25.8419H30.3343L26.13 20.1674L30.4031 14.483H32.4561L28.183 20.1773L32.3677 25.8419H32.3775Z" fill="#004999"/>
<path d="M20.3729 20.1771C19.4594 19.0897 18.3395 18.1802 17.0625 17.5178V22.8562C18.3395 22.184 19.4594 21.2646 20.3729 20.1771Z" fill="#E8390E"/>
</g>
<defs>
<clipPath id="clip0_2356_20865">
<rect width="40" height="39" fill="white"/>
</clipPath>
</defs>
</svg>
