<svg width="47" height="17" viewBox="0 0 47 17" fill="none" xmlns="http://www.w3.org/2000/svg">
<g id="logo_small">
<g id="Union">
<path fill-rule="evenodd" clip-rule="evenodd" d="M4.2413 1H11.9219C12.9006 1 13.8183 1.19129 14.6208 1.62535L14.756 1H26.6558L25.919 4.39553L28.0408 1H46L44.7621 6.70429H41.3661L39.3603 16H29.9851L29.5514 13.6451H27.2842L25.8205 16H11.5147L11.5707 15.7409C10.9316 15.9164 10.2505 16 9.53662 16H1L4.2413 1ZM11.8962 14.2342C12.2232 14.0896 12.5269 13.9105 12.8073 13.6967C12.9334 13.602 13.0531 13.5018 13.1665 13.3962L13.1874 13.3766C13.3081 13.2626 13.4216 13.1424 13.5279 13.0159L13.1665 14.6883H25.0683L26.532 12.3334H30.6702L31.1038 14.6883H38.2751L40.2809 5.39258H43.6781L44.3467 2.31171H33.8117L33.1431 5.39258H36.5403L34.6509 14.149L32.3868 2.31171H28.7908L22.9825 11.6074H22.9787H17.5576L17.937 9.90764H21.8402L22.4546 7.09236H18.5514L18.9128 5.39258H24.334L25.0026 2.31171H15.8409L15.3233 4.70695C15.255 3.99813 14.9343 3.4358 14.3614 3.01996C14.3494 3.01107 14.3373 3.00228 14.3252 2.99356C13.6923 2.53899 12.8912 2.31171 11.9219 2.31171H5.32623L2.65182 14.6883H9.53662C10.4252 14.6883 11.2117 14.5369 11.8962 14.2342ZM10.7293 10.8992C10.7534 10.8047 10.7654 10.6808 10.7654 10.5274C10.7654 10.2322 10.663 10.0139 10.4582 9.87222C10.2655 9.73058 9.95826 9.65975 9.53662 9.65975H7.4766L6.95256 12.0855H9.04872C9.54264 12.0855 9.92212 11.997 10.1871 11.8199C10.4522 11.6428 10.6329 11.3359 10.7293 10.8992ZM8.50661 4.91451H10.3679C10.7534 4.91451 11.0304 4.96763 11.1991 5.07387C11.3677 5.1683 11.4521 5.33946 11.4521 5.58734C11.4521 5.69358 11.434 5.82933 11.3979 5.99459C11.3135 6.38412 11.1449 6.66742 10.8919 6.84448C10.6389 7.02154 10.3076 7.11007 9.89802 7.11007H8.01871L8.50661 4.91451ZM14.3781 9.08127C14.356 9.04285 14.3324 9.00549 14.3072 8.96921C14.1144 8.66231 13.8133 8.41442 13.4037 8.22556C13.8278 7.98659 14.1866 7.68359 14.4801 7.31659C14.5201 7.26664 14.5588 7.21551 14.5963 7.16319C14.7073 7.01418 14.8056 6.86173 14.8914 6.70584L14.3781 9.08127ZM29.9473 6.08312L27.9777 9.55351H30.3991L29.9473 6.08312Z" fill="white"/>
<path d="M4.2413 1V0.929542H4.18444L4.17243 0.985119L4.2413 1ZM14.6208 1.62535L14.5873 1.68732L14.6699 1.73198L14.6897 1.64023L14.6208 1.62535ZM14.756 1V0.929542H14.6991L14.6871 0.985119L14.756 1ZM26.6558 1L26.7247 1.01494L26.7432 0.929542H26.6558V1ZM25.919 4.39553L25.8501 4.38059L25.9787 4.43287L25.919 4.39553ZM28.0408 1V0.929542H28.0018L27.9811 0.962662L28.0408 1ZM46 1L46.0689 1.01494L46.0874 0.929542H46V1ZM44.7621 6.70429V6.77475H44.8189L44.8309 6.71923L44.7621 6.70429ZM41.3661 6.70429V6.63383H41.3093L41.2973 6.68943L41.3661 6.70429ZM39.3603 16V16.0705H39.4172L39.4292 16.0149L39.3603 16ZM29.9851 16L29.9158 16.0128L29.9264 16.0705H29.9851V16ZM29.5514 13.6451L29.6207 13.6323L29.6101 13.5746H29.5514V13.6451ZM27.2842 13.6451V13.5746H27.245L27.2243 13.6079L27.2842 13.6451ZM25.8205 16V16.0705H25.8596L25.8803 16.0372L25.8205 16ZM11.5147 16L11.4458 15.9851L11.4274 16.0705H11.5147V16ZM11.5707 15.7409L11.6395 15.7558L11.6641 15.6422L11.552 15.6729L11.5707 15.7409ZM1 16L0.931132 15.9851L0.912691 16.0705H1V16ZM12.8073 13.6967L12.765 13.6404L12.7646 13.6407L12.8073 13.6967ZM11.8962 14.2342L11.8677 14.1698H11.8677L11.8962 14.2342ZM13.1665 13.3962L13.2145 13.4478L13.2147 13.4476L13.1665 13.3962ZM13.1874 13.3766L13.2356 13.428L13.2358 13.4278L13.1874 13.3766ZM13.5279 13.0159L13.5967 13.0308L13.4739 12.9706L13.5279 13.0159ZM13.1665 14.6883L13.0976 14.6734L13.0792 14.7587H13.1665V14.6883ZM25.0683 14.6883V14.7587H25.1075L25.1282 14.7255L25.0683 14.6883ZM26.532 12.3334V12.2629H26.4929L26.4722 12.2962L26.532 12.3334ZM30.6702 12.3334L30.7394 12.3206L30.7288 12.2629H30.6702V12.3334ZM31.1038 14.6883L31.0346 14.701L31.0452 14.7587H31.1038V14.6883ZM38.2751 14.6883V14.7587H38.332L38.344 14.7031L38.2751 14.6883ZM40.2809 5.39258V5.32212H40.224L40.212 5.37772L40.2809 5.39258ZM43.6781 5.39258V5.46303H43.7349L43.747 5.40752L43.6781 5.39258ZM44.3467 2.31171L44.4156 2.32665L44.4341 2.24125H44.3467V2.31171ZM33.8117 2.31171V2.24125H33.7549L33.7428 2.29677L33.8117 2.31171ZM33.1431 5.39258L33.0742 5.37763L33.0557 5.46303H33.1431V5.39258ZM36.5403 5.39258L36.6092 5.40744L36.6276 5.32212H36.5403V5.39258ZM34.6509 14.149L34.5817 14.1622L34.7198 14.1638L34.6509 14.149ZM32.3868 2.31171L32.456 2.29848L32.4451 2.24125H32.3868V2.31171ZM28.7908 2.31171V2.24125H28.7518L28.7311 2.27438L28.7908 2.31171ZM22.9825 11.6074V11.6779H23.0216L23.0423 11.6448L22.9825 11.6074ZM17.5576 11.6074L17.4888 11.5921L17.4697 11.6779H17.5576V11.6074ZM17.937 9.90764V9.83718H17.8806L17.8683 9.89228L17.937 9.90764ZM21.8402 9.90764V9.97809H21.897L21.9091 9.92266L21.8402 9.90764ZM22.4546 7.09236L22.5235 7.10739L22.5421 7.02191H22.4546V7.09236ZM18.5514 7.09236L18.4825 7.07771L18.4644 7.16282H18.5514V7.09236ZM18.9128 5.39258V5.32212H18.8558L18.8439 5.37792L18.9128 5.39258ZM24.334 5.39258V5.46303H24.3908L24.4028 5.40752L24.334 5.39258ZM25.0026 2.31171L25.0714 2.32665L25.0899 2.24125H25.0026V2.31171ZM15.8409 2.31171V2.24125H15.784L15.772 2.29683L15.8409 2.31171ZM15.3233 4.70695L15.2532 4.71371L15.3922 4.72183L15.3233 4.70695ZM14.3614 3.01996L14.3195 3.07661L14.32 3.07698L14.3614 3.01996ZM14.3252 2.99356L14.3663 2.93633L14.3663 2.93633L14.3252 2.99356ZM5.32623 2.31171V2.24125H5.26937L5.25736 2.29683L5.32623 2.31171ZM2.65182 14.6883L2.58295 14.6734L2.56451 14.7587H2.65182V14.6883ZM10.7293 10.8992L10.661 10.8818L10.6605 10.884L10.7293 10.8992ZM10.4582 9.87222L10.4165 9.92902L10.4181 9.93017L10.4582 9.87222ZM7.4766 9.65975V9.58929H7.41973L7.40773 9.64487L7.4766 9.65975ZM6.95256 12.0855L6.88369 12.0706L6.86525 12.1559H6.95256V12.0855ZM8.50661 4.91451V4.84405H8.45009L8.43783 4.89923L8.50661 4.91451ZM11.1991 5.07387L11.1615 5.13356L11.1647 5.13534L11.1991 5.07387ZM11.3979 5.99459L11.329 5.97953L11.329 5.97968L11.3979 5.99459ZM10.8919 6.84448L10.9323 6.9022L10.8919 6.84448ZM8.01871 7.11007L7.94993 7.09479L7.93087 7.18053H8.01871V7.11007ZM14.3072 8.96921L14.2475 9.00673L14.2493 9.00938L14.3072 8.96921ZM14.3781 9.08127L14.317 9.11638L14.4083 9.27517L14.4469 9.09615L14.3781 9.08127ZM13.4037 8.22556L13.3691 8.16417L13.249 8.23183L13.3742 8.28954L13.4037 8.22556ZM14.4801 7.31659L14.5351 7.36059L14.4801 7.31659ZM14.5963 7.16319L14.5398 7.1211L14.5391 7.12213L14.5963 7.16319ZM14.8914 6.70584L14.9602 6.72073L14.8296 6.67189L14.8914 6.70584ZM27.9777 9.55351L27.9164 9.51874L27.8567 9.62397H27.9777V9.55351ZM29.9473 6.08312L30.0172 6.07402L29.99 5.86517L29.8861 6.04834L29.9473 6.08312ZM30.3991 9.55351V9.62397H30.4793L30.469 9.54442L30.3991 9.55351ZM11.9219 0.929542H4.2413V1.07046H11.9219V0.929542ZM14.6543 1.56338C13.8394 1.12262 12.9097 0.929542 11.9219 0.929542V1.07046C12.8916 1.07046 13.7971 1.25996 14.5873 1.68732L14.6543 1.56338ZM14.6871 0.985119L14.552 1.61047L14.6897 1.64023L14.8248 1.01488L14.6871 0.985119ZM26.6558 0.929542H14.756V1.07046H26.6558V0.929542ZM25.9878 4.41047L26.7247 1.01494L26.587 0.985057L25.8501 4.38059L25.9878 4.41047ZM27.9811 0.962662L25.8592 4.35819L25.9787 4.43287L28.1006 1.03734L27.9811 0.962662ZM46 0.929542H28.0408V1.07046H46V0.929542ZM44.8309 6.71923L46.0689 1.01494L45.9311 0.985057L44.6932 6.68935L44.8309 6.71923ZM41.3661 6.77475H44.7621V6.63383H41.3661V6.77475ZM39.4292 16.0149L41.435 6.71915L41.2973 6.68943L39.2915 15.9851L39.4292 16.0149ZM29.9851 16.0705H39.3603V15.9295H29.9851V16.0705ZM29.4821 13.6578L29.9158 16.0128L30.0544 15.9872L29.6207 13.6323L29.4821 13.6578ZM27.2842 13.7155H29.5514V13.5746H27.2842V13.7155ZM25.8803 16.0372L27.344 13.6823L27.2243 13.6079L25.7606 15.9628L25.8803 16.0372ZM11.5147 16.0705H25.8205V15.9295H11.5147V16.0705ZM11.5018 15.726L11.4458 15.9851L11.5835 16.0149L11.6395 15.7558L11.5018 15.726ZM9.53662 16.0705C10.256 16.0705 10.9435 15.9862 11.5893 15.8088L11.552 15.6729C10.9198 15.8465 10.245 15.9295 9.53662 15.9295V16.0705ZM1 16.0705H9.53662V15.9295H1V16.0705ZM4.17243 0.985119L0.931132 15.9851L1.06887 16.0149L4.31017 1.01488L4.17243 0.985119ZM12.7646 13.6407C12.4887 13.851 12.1898 14.0274 11.8677 14.1698L11.9247 14.2987C12.2567 14.1518 12.5652 13.9699 12.8501 13.7528L12.7646 13.6407ZM13.1185 13.3447C13.0069 13.4486 12.8891 13.5472 12.765 13.6404L12.8497 13.7531C12.9776 13.6569 13.0993 13.5551 13.2145 13.4478L13.1185 13.3447ZM13.1392 13.3252L13.1183 13.3448L13.2147 13.4476L13.2356 13.428L13.1392 13.3252ZM13.4739 12.9706C13.3694 13.095 13.2578 13.2132 13.1391 13.3253L13.2358 13.4278C13.3585 13.312 13.4738 13.1898 13.5818 13.0612L13.4739 12.9706ZM13.2353 14.7032L13.5967 13.0308L13.459 13.001L13.0976 14.6734L13.2353 14.7032ZM25.0683 14.6178H13.1665V14.7587H25.0683V14.6178ZM26.4722 12.2962L25.0085 14.6511L25.1282 14.7255L26.5919 12.3706L26.4722 12.2962ZM30.6702 12.2629H26.532V12.4038H30.6702V12.2629ZM31.1731 14.6755L30.7394 12.3206L30.6009 12.3461L31.0346 14.701L31.1731 14.6755ZM38.2751 14.6178H31.1038V14.7587H38.2751V14.6178ZM40.212 5.37772L38.2062 14.6734L38.344 14.7031L40.3498 5.40744L40.212 5.37772ZM43.6781 5.32212H40.2809V5.46303H43.6781V5.32212ZM44.2779 2.29677L43.6093 5.37763L43.747 5.40752L44.4156 2.32665L44.2779 2.29677ZM33.8117 2.38217H44.3467V2.24125H33.8117V2.38217ZM33.212 5.40752L33.8806 2.32665L33.7428 2.29677L33.0742 5.37763L33.212 5.40752ZM36.5403 5.32212H33.1431V5.46303H36.5403V5.32212ZM34.7198 14.1638L36.6092 5.40744L36.4715 5.37772L34.582 14.1341L34.7198 14.1638ZM32.3176 2.32495L34.5817 14.1622L34.7201 14.1357L32.456 2.29848L32.3176 2.32495ZM28.7908 2.38217H32.3868V2.24125H28.7908V2.38217ZM23.0423 11.6448L28.8506 2.34905L28.7311 2.27438L22.9228 11.5701L23.0423 11.6448ZM22.9787 11.6779H22.9825V11.537H22.9787V11.6779ZM17.5576 11.6779H22.9787V11.537H17.5576V11.6779ZM17.8683 9.89228L17.4888 11.5921L17.6263 11.6228L18.0058 9.92299L17.8683 9.89228ZM21.8402 9.83718H17.937V9.97809H21.8402V9.83718ZM22.3858 7.07734L21.7714 9.89261L21.9091 9.92266L22.5235 7.10739L22.3858 7.07734ZM18.5514 7.16282H22.4546V7.02191H18.5514V7.16282ZM18.8439 5.37792L18.4825 7.07771L18.6204 7.10702L18.9818 5.40723L18.8439 5.37792ZM24.334 5.32212H18.9128V5.46303H24.334V5.32212ZM24.9337 2.29677L24.2651 5.37763L24.4028 5.40752L25.0714 2.32665L24.9337 2.29677ZM15.8409 2.38217H25.0026V2.24125H15.8409V2.38217ZM15.3922 4.72183L15.9098 2.32659L15.772 2.29683L15.2544 4.69207L15.3922 4.72183ZM14.32 3.07698C14.8765 3.48088 15.1868 4.02485 15.2532 4.71371L15.3934 4.70019C15.3232 3.9714 14.9922 3.39071 14.4028 2.96294L14.32 3.07698ZM14.2841 3.05079C14.2959 3.05931 14.3078 3.06792 14.3195 3.07661L14.4033 2.96331C14.391 2.95423 14.3787 2.94524 14.3663 2.93633L14.2841 3.05079ZM11.9219 2.38217C12.8801 2.38217 13.6658 2.60673 14.2841 3.05079L14.3663 2.93633C13.7187 2.47126 12.9023 2.24125 11.9219 2.24125V2.38217ZM5.32623 2.38217H11.9219V2.24125H5.32623V2.38217ZM2.72068 14.7032L5.39509 2.32659L5.25736 2.29683L2.58295 14.6734L2.72068 14.7032ZM9.53662 14.6178H2.65182V14.7587H9.53662V14.6178ZM11.8677 14.1698C11.1937 14.4679 10.4172 14.6178 9.53662 14.6178V14.7587C10.4332 14.7587 11.2297 14.606 11.9247 14.2987L11.8677 14.1698ZM10.6949 10.5274C10.6949 10.6779 10.683 10.7953 10.661 10.8818L10.7975 10.9166C10.8237 10.8142 10.8359 10.6837 10.8359 10.5274H10.6949ZM10.4181 9.93017C10.6002 10.0561 10.6949 10.2505 10.6949 10.5274H10.8359C10.8359 10.214 10.7258 9.97165 10.4983 9.81428L10.4181 9.93017ZM9.53662 9.73021C9.95339 9.73021 10.242 9.80079 10.4165 9.929L10.4999 9.81545C10.2889 9.66036 9.96313 9.58929 9.53662 9.58929V9.73021ZM7.4766 9.73021H9.53662V9.58929H7.4766V9.73021ZM7.02143 12.1004L7.54547 9.67463L7.40773 9.64487L6.88369 12.0706L7.02143 12.1004ZM9.04872 12.015H6.95256V12.1559H9.04872V12.015ZM10.148 11.7613C9.89932 11.9275 9.5358 12.015 9.04872 12.015V12.1559C9.54948 12.1559 9.94492 12.0665 10.2263 11.8785L10.148 11.7613ZM10.6605 10.884C10.5664 11.3102 10.3927 11.5978 10.148 11.7613L10.2263 11.8785C10.5116 11.6879 10.6994 11.3617 10.7981 10.9144L10.6605 10.884ZM10.3679 4.84405H8.50661V4.98497H10.3679V4.84405ZM11.2366 5.01425C11.0504 4.89692 10.7563 4.84405 10.3679 4.84405V4.98497C10.7504 4.98497 11.0105 5.03834 11.1615 5.13348L11.2366 5.01425ZM11.5225 5.58734C11.5225 5.32232 11.4309 5.12289 11.2335 5.01239L11.1647 5.13534C11.3046 5.21371 11.3816 5.3566 11.3816 5.58734H11.5225ZM11.4667 6.00964C11.5034 5.84198 11.5225 5.70071 11.5225 5.58734H11.3816C11.3816 5.68645 11.3646 5.81668 11.329 5.97953L11.4667 6.00964ZM10.9323 6.9022C11.2037 6.71227 11.3798 6.41117 11.4667 6.00949L11.329 5.97968C11.2473 6.35707 11.0861 6.62256 10.8515 6.78676L10.9323 6.9022ZM9.89802 7.18053C10.3174 7.18053 10.6641 7.08987 10.9323 6.9022L10.8515 6.78676C10.6137 6.95321 10.2978 7.03961 9.89802 7.03961V7.18053ZM8.01871 7.18053H9.89802V7.03961H8.01871V7.18053ZM8.43783 4.89923L7.94993 7.09479L8.08749 7.12535L8.57539 4.9298L8.43783 4.89923ZM14.2493 9.00938C14.2733 9.04402 14.2959 9.07968 14.317 9.11638L14.4392 9.04616C14.4161 9.00601 14.3914 8.96697 14.3651 8.92904L14.2493 9.00938ZM13.3742 8.28954C13.7744 8.47408 14.0636 8.7139 14.2475 9.00669L14.3669 8.93174C14.1652 8.61072 13.8521 8.35476 13.4332 8.16157L13.3742 8.28954ZM14.4251 7.27258C14.1375 7.63229 13.7857 7.92947 13.3691 8.16417L13.4383 8.28694C13.87 8.0437 14.2358 7.7349 14.5351 7.36059L14.4251 7.27258ZM14.5391 7.12213C14.5022 7.17345 14.4643 7.2236 14.4251 7.27258L14.5351 7.36059C14.5759 7.30968 14.6153 7.25756 14.6536 7.20425L14.5391 7.12213ZM14.8296 6.67189C14.7455 6.82483 14.6489 6.97457 14.5398 7.1211L14.6528 7.20527C14.7656 7.05379 14.8658 6.89863 14.9531 6.7398L14.8296 6.67189ZM14.4469 9.09615L14.9602 6.72073L14.8225 6.69096L14.3092 9.06639L14.4469 9.09615ZM28.0389 9.58829L30.0086 6.11789L29.8861 6.04834L27.9164 9.51874L28.0389 9.58829ZM30.3991 9.48306H27.9777V9.62397H30.3991V9.48306ZM29.8775 6.09221L30.3292 9.56261L30.469 9.54442L30.0172 6.07402L29.8775 6.09221Z" fill="white"/>
</g>
</g>
</svg>
