<svg width="32" height="32" viewBox="0 0 32 32" fill="none" xmlns="http://www.w3.org/2000/svg">
<g id="ic_camera">
<path id="Vector" d="M24.4615 8.6087H21.5296L20.088 6.38696C20.0107 6.26799 19.9061 6.17044 19.7835 6.10294C19.6608 6.03544 19.5238 6.00009 19.3846 6H12.6154C12.4762 6.00009 12.3392 6.03544 12.2165 6.10294C12.0939 6.17044 11.9893 6.26799 11.912 6.38696L10.4693 8.6087H7.53846C6.86522 8.6087 6.21955 8.88354 5.7435 9.37276C5.26744 9.86199 5 10.5255 5 11.2174V23.3913C5 24.0832 5.26744 24.7467 5.7435 25.2359C6.21955 25.7252 6.86522 26 7.53846 26H24.4615C25.1348 26 25.7804 25.7252 26.2565 25.2359C26.7326 24.7467 27 24.0832 27 23.3913V11.2174C27 10.5255 26.7326 9.86199 26.2565 9.37276C25.7804 8.88354 25.1348 8.6087 24.4615 8.6087ZM25.3077 23.3913C25.3077 23.6219 25.2185 23.8431 25.0599 24.0062C24.9012 24.1693 24.686 24.2609 24.4615 24.2609H7.53846C7.31405 24.2609 7.09883 24.1693 6.94014 24.0062C6.78146 23.8431 6.69231 23.6219 6.69231 23.3913V11.2174C6.69231 10.9868 6.78146 10.7656 6.94014 10.6025C7.09883 10.4394 7.31405 10.3478 7.53846 10.3478H10.9231C11.0624 10.3479 11.1996 10.3126 11.3225 10.2451C11.4454 10.1776 11.5502 10.08 11.6275 9.96087L13.0681 7.73913H18.9309L20.3725 9.96087C20.4498 10.08 20.5546 10.1776 20.6775 10.2451C20.8004 10.3126 20.9376 10.3479 21.0769 10.3478H24.4615C24.686 10.3478 24.9012 10.4394 25.0599 10.6025C25.2185 10.7656 25.3077 10.9868 25.3077 11.2174V23.3913ZM16 12.087C15.0796 12.087 14.1798 12.3675 13.4145 12.893C12.6491 13.4185 12.0526 14.1654 11.7004 15.0393C11.3482 15.9132 11.256 16.8749 11.4356 17.8026C11.6151 18.7303 12.0584 19.5825 12.7092 20.2514C13.3601 20.9202 14.1893 21.3757 15.0921 21.5603C15.9948 21.7448 16.9306 21.6501 17.781 21.2881C18.6313 20.9261 19.3582 20.3131 19.8695 19.5266C20.3809 18.7401 20.6538 17.8155 20.6538 16.8696C20.6524 15.6016 20.1617 14.3859 19.2892 13.4893C18.4168 12.5927 17.2338 12.0884 16 12.087ZM16 19.913C15.4143 19.913 14.8417 19.7345 14.3547 19.4001C13.8676 19.0657 13.488 18.5904 13.2639 18.0343C13.0397 17.4781 12.9811 16.8662 13.0954 16.2758C13.2096 15.6854 13.4917 15.1431 13.9059 14.7175C14.3201 14.2919 14.8477 14.002 15.4222 13.8846C15.9967 13.7671 16.5922 13.8274 17.1333 14.0578C17.6745 14.2881 18.137 14.6782 18.4624 15.1787C18.7878 15.6792 18.9615 16.2676 18.9615 16.8696C18.9615 17.6767 18.6495 18.4509 18.0941 19.0216C17.5387 19.5924 16.7854 19.913 16 19.913Z" fill="#626262"/>
</g>
</svg>
