<svg width="73" height="30" viewBox="0 0 73 30" fill="none" xmlns="http://www.w3.org/2000/svg">
<g id="Group 1171284228">
<path id="Vector" d="M43.9435 29.1722L44.0638 29.5H44.4129H49H49.725L49.4674 28.8223L41.8637 8.82232L41.7411 8.5H41.3963H36.6019H36.257L36.1345 8.82235L28.5326 28.8224L28.2751 29.5H29H33.5871H33.9367L34.0567 29.1716L35.5664 25.0409L41.8229 23.3935L43.9435 29.1722ZM37.426 20.0068L38.9903 15.7239L40.2961 19.2555L37.426 20.0068Z" fill="white" stroke="#BFBFBF"/>
<path id="Vector_2" d="M15.5 29V29.5H16H32H32.5V29V25.482V24.982H32H21.1166V21.0606H31.2542H31.7542V20.5606V17.0182V16.5182H31.2542H21.1166V13.0425H31.7435H32.2435V12.5425V9V8.5H31.7435H16H15.5V9V29Z" fill="white" stroke="#BFBFBF"/>
<path id="Vector_3" d="M0.5 29V29.5H1H13.3692C14.1518 29.5 14.9123 29.3902 15.6397 29.1669L15.648 29.1644L15.6562 29.1615C16.3626 28.9176 17.0168 28.5598 17.6092 28.0871L17.6204 28.0782L17.631 28.0687C18.2243 27.5372 18.6738 26.9281 19.0093 26.2066L19.0128 26.1992L19.016 26.1917C19.345 25.4189 19.5 24.5711 19.5 23.6173C19.5 22.9154 19.4062 22.2087 19.2222 21.5054L19.2188 21.4923L19.2147 21.4795C19.0113 20.8442 18.7537 20.2937 18.4255 19.8036L18.4255 19.8036L18.4185 19.7931L18.4185 19.7931L18.4115 19.7826L18.3982 19.7629L18.3832 19.7444C18.0166 19.2958 17.5897 18.8996 17.0989 18.5544L17.085 18.5446L17.0705 18.5358C16.9732 18.4768 16.8734 18.4195 16.7714 18.3641C17.2103 17.9704 17.5673 17.5158 17.8458 16.9928L17.8458 16.9928L17.8483 16.9881C18.3163 16.0863 18.5557 15.1162 18.5557 14.1136C18.5557 13.2 18.396 12.3492 18.0645 11.5721L18.0584 11.5578L18.0514 11.5439C17.6943 10.8328 17.2257 10.2369 16.6453 9.77458L16.6393 9.76981L16.6332 9.76522C16.0729 9.34632 15.4327 9.03403 14.6752 8.8031L14.6669 8.80058L14.6586 8.79834C13.9317 8.60399 13.1599 8.5 12.4231 8.5H1H0.5V9V29ZM11.5525 25.1043H5.93023V22.1333L11.3625 20.5569C12.1744 20.6786 12.7901 20.9452 13.266 21.3452C13.7315 21.755 13.9469 22.2325 13.9469 22.8483C13.9469 23.675 13.7209 24.2328 13.3889 24.5473C13.0288 24.8876 12.4412 25.1043 11.5525 25.1043ZM11.6368 16.0717L11.6368 16.0716L11.6286 16.0738L5.92847 17.5989V12.9201H11.6771C12.1033 12.9201 12.4959 13.0484 12.8417 13.2984C13.0756 13.4972 13.2255 13.8104 13.2255 14.3111C13.2255 14.733 13.0978 15.0871 12.8546 15.3828C12.5973 15.6898 12.2034 15.9302 11.6368 16.0717Z" fill="white" stroke="#BFBFBF"/>
<path id="Vector_4" d="M62.6763 12.4199L61.7669 10.1139L60.8797 7.39934L60.4686 6.14128L59.9452 7.35697L59.0795 9.36798H42H41.5V9.86798V13.6605V14.1605H42H47.8503V29V29.5H48.3503H53.188H53.688V29V14.1605H56.0814V14.1638H56.5814H59.6337H59.9286L60.0713 13.9057L60.274 13.5392L61.582 17.3671L61.5818 17.3671L61.5867 17.3801L62.6081 20.1186L63.1692 21.623L63.5614 20.066L64.2643 17.2757L64.2657 17.2705L65.701 11.8184L66.3636 13.8208L66.4771 14.1638H66.8383H72H72.5V13.6638V12.1422V11.6422H72H68.5533L66.8824 6.5969L66.8815 6.59433L66.005 3.84797L65.5187 2.3244L65.0506 3.85364L64.1963 6.64427L64.1933 6.65378L64.1908 6.66341L62.6763 12.4199Z" fill="white" stroke="#BFBFBF"/>
</g>
</svg>
