<svg width="40" height="40" viewBox="0 0 40 40" fill="none" xmlns="http://www.w3.org/2000/svg">
<g clip-path="url(#clip0_2356_20925)">
<path d="M34.8502 20.2053C34.8502 20.2053 34.3353 21.6811 35.1884 22.3652C35.1884 22.3652 36.326 23.5566 34.9655 23.326C34.9655 23.326 30.5843 22.7649 26.7795 23.9563C26.7795 23.9563 24.904 24.1792 23.313 25.8856C23.313 25.8856 21.8372 27.4459 23.7127 28.7833C23.7127 28.7833 25.0193 29.8594 23.1977 29.8594C23.1977 29.8594 17.233 30.605 13.4283 28.4989C13.4283 28.4989 9.96169 26.6234 13.0901 24.4405C13.0901 24.4405 14.512 23.326 17.233 22.8802C17.233 22.8802 21.0685 21.9347 26.0954 22.7879C26.0954 22.7879 20.8149 20.2668 26.0954 17.5919C26.0954 17.5919 29.3929 15.7165 35.9801 16.4005C35.9801 16.4005 37.6481 16.4236 39.3391 16.9309C37.1177 10.7818 29.3007 6.23145 19.9848 6.23145C9.25455 6.23145 0.515115 12.2499 0.0078125 19.8056C0.130795 19.4597 1.22226 17.1154 7.74801 16.6004C7.74801 16.6004 11.007 16.4005 14.2738 17.0001C14.2738 17.0001 8.53971 14.6096 13.9663 11.7964C13.9663 11.7964 18.4475 9.18302 27.5405 11.0662C27.5405 11.0662 28.5935 11.4659 27.5405 11.8886C27.5405 11.8886 23.7895 12.5958 22.8902 14.7633C22.8902 14.7633 22.406 15.9547 23.4283 16.9463C23.4283 16.9463 24.2276 17.5458 22.8595 17.5228C22.8595 17.5228 16.9563 16.6158 12.552 19.1907C12.552 19.1907 9.36984 20.8971 11.8756 23.1723C11.8756 23.1723 12.8441 23.7949 11.5912 23.964C11.5912 23.964 2.6135 25.1553 0.0846765 21.1815L0.0078125 21.0431C0.407505 28.6527 9.18537 34.3483 19.9924 34.3483C30.7995 34.3483 40.0078 28.3836 40.0078 20.5051C40.0078 19.5289 39.8695 18.5758 39.6081 17.6611C39.5774 17.6611 36.6642 17.8994 34.8579 20.2053H34.8502Z" fill="#0069B4"/>
</g>
<defs>
<clipPath id="clip0_2356_20925">
<rect width="40" height="28.1168" fill="white" transform="translate(0 6.23169)"/>
</clipPath>
</defs>
</svg>
