<svg width="24" height="24" viewBox="0 0 24 24" fill="none" xmlns="http://www.w3.org/2000/svg">
<path d="M3.81818 6.05833L4.86545 5L18.5455 18.9333L17.5064 20L14.9864 17.4333C14.0455 17.75 13.0473 17.9167 12 17.9167C7.90909 17.9167 4.41545 15.325 3 11.6667C3.56455 10.2 4.46455 8.90833 5.61 7.88333L3.81818 6.05833ZM12 9.16667C12.651 9.16667 13.2753 9.43006 13.7356 9.8989C14.1959 10.3677 14.4545 11.0036 14.4545 11.6667C14.455 11.9505 14.4079 12.2323 14.3155 12.5L11.1818 9.30833C11.4447 9.21415 11.7214 9.16625 12 9.16667ZM12 5.41667C16.0909 5.41667 19.5845 8.00833 21 11.6667C20.3319 13.3941 19.1972 14.8936 17.7273 15.9917L16.5655 14.8C17.697 14.0029 18.6095 12.9243 19.2164 11.6667C18.555 10.2916 17.5281 9.13303 16.2524 8.32279C14.9767 7.51256 13.5034 7.08314 12 7.08333C11.1082 7.08333 10.2327 7.23333 9.41455 7.5L8.15455 6.225C9.33273 5.70833 10.6336 5.41667 12 5.41667ZM4.78364 11.6667C5.44501 13.0418 6.47192 14.2003 7.74761 15.0105C9.0233 15.8208 10.4966 16.2502 12 16.25C12.5645 16.25 13.1209 16.1917 13.6364 16.075L11.7709 14.1667C11.2016 14.1045 10.6703 13.8457 10.2654 13.4334C9.86056 13.021 9.60648 12.4799 9.54545 11.9L6.76364 9.05833C5.95364 9.76667 5.27455 10.65 4.78364 11.6667Z" fill="#939393"/>
</svg>
