<svg width="40" height="40" viewBox="0 0 40 40" fill="none" xmlns="http://www.w3.org/2000/svg">
<g clip-path="url(#clip0_2356_20910)">
<g clip-path="url(#clip1_2356_20910)">
<path d="M39.7004 20C39.7004 31.0442 30.8454 40 19.9363 40C9.02726 40 0.15625 31.0442 0.15625 20C0.15625 8.95579 9.00044 0 19.9363 0C30.8723 0 39.7004 8.95037 39.7004 20Z" fill="white"/>
<path d="M19.9245 38.9965C30.3294 38.9965 38.766 30.4584 38.766 19.9349C38.766 9.41145 30.3294 0.86792 19.9138 0.86792C9.49812 0.86792 1.07227 9.4006 1.07227 19.9349C1.07227 30.4692 9.51957 38.9965 19.9245 38.9965Z" fill="#007BC7"/>
<mask id="mask0_2356_20910" style="mask-type:luminance" maskUnits="userSpaceOnUse" x="1" y="0" width="38" height="39">
<path d="M19.9347 38.9857C30.3343 38.9857 38.7762 30.453 38.7762 19.935C38.7762 9.41696 30.3343 0.884277 19.9079 0.884277C9.48153 0.884277 1.06641 9.41696 1.06641 19.935C1.06641 30.453 9.50834 38.9857 19.9347 38.9857Z" fill="white"/>
</mask>
<g mask="url(#mask0_2356_20910)">
<path d="M20 29.1294C28.2918 29.1294 35.3929 31.4619 38.4285 34.7817C39.4476 32.4112 40 29.8074 40 27.0627C40 16.1269 31.0432 7.2688 19.9946 7.2688C8.9461 7.2688 0 16.127 0 27.0681C0 29.8075 0.55779 32.4112 1.58219 34.7817C4.6125 31.4619 11.719 29.1294 19.9946 29.1294H20Z" fill="#007BC7"/>
<path d="M20.0006 7.44249C8.99493 7.44249 0.0649182 16.2464 0.0488281 27.0899L0.0595549 27.8005C0.150732 30.2632 0.692432 32.6066 1.61493 34.7492C4.64523 31.462 11.7356 29.1512 19.9952 29.1512C28.2548 29.1512 35.3398 31.4674 38.3701 34.7492C39.3033 32.6066 39.845 30.2578 39.9362 27.8005L39.9469 27.079C39.9362 16.2355 31.0008 7.43164 19.9952 7.43164L20.0006 7.44249Z" fill="#007DC8"/>
<path d="M19.9943 7.60522C9.03157 7.60522 0.117653 16.3657 0.101562 27.1062V27.8222C0.19274 30.2686 0.73444 32.6012 1.66767 34.7384C4.68188 31.4674 11.7615 29.1729 19.9943 29.1729C28.2271 29.1729 35.296 31.4674 38.3263 34.7384C39.2649 32.6012 39.8066 30.2632 39.8924 27.8222L39.9031 27.1062C39.8709 16.3549 30.9677 7.60522 19.9943 7.60522Z" fill="#007FCA"/>
<path d="M19.9949 7.77319C9.06431 7.77319 0.177207 16.4686 0.150391 27.1277L0.161117 27.8329C0.241568 30.2739 0.788631 32.5901 1.70577 34.7111C4.71998 31.4727 11.7674 29.1944 19.9895 29.1944C28.2115 29.1944 35.2536 31.4673 38.2786 34.7111C39.2011 32.5901 39.7481 30.2739 39.8286 27.8329L39.8393 27.1223C39.8018 16.4686 30.9254 7.77862 19.9895 7.77862L19.9949 7.77319Z" fill="#0080CB"/>
<path d="M19.9949 7.94678C9.09655 7.94678 0.252356 16.5879 0.193359 27.144L0.209449 27.8546C0.284537 30.2739 0.8316 32.5793 1.75946 34.6894C4.76831 31.4727 11.7943 29.2215 19.9949 29.2215C28.1955 29.2215 35.2108 31.4727 38.2304 34.6894C39.169 32.5793 39.6999 30.2739 39.7857 27.8491V27.1385C39.7428 16.5825 30.8933 7.94678 19.9949 7.94678Z" fill="#0082CC"/>
<path d="M19.9838 8.10962C9.12833 8.10962 0.31095 16.6965 0.251953 27.1603V27.8601C0.337767 30.2686 0.86874 32.5577 1.7966 34.6624C4.80545 31.4728 11.8154 29.2325 19.9838 29.2325C28.1522 29.2325 35.1675 31.4728 38.1656 34.6624C39.1042 32.5577 39.6405 30.2686 39.7263 27.8601V27.1603C39.6673 16.6965 30.85 8.10962 19.9838 8.10962Z" fill="#0084CD"/>
<path d="M19.9834 8.2832C9.16007 8.2832 0.36415 16.8159 0.289062 27.1766V27.8818C0.369513 30.2686 0.911213 32.5523 1.84444 34.6407C4.8372 31.4782 11.831 29.265 19.9834 29.265C28.1357 29.265 35.1349 31.4782 38.1223 34.6407C39.0555 32.5577 39.6026 30.274 39.6669 27.8764V27.1712C39.6026 16.8105 30.8013 8.2832 19.9834 8.2832Z" fill="#0086CF"/>
<path d="M19.9844 8.45679C9.18794 8.45679 0.434927 16.9244 0.34375 27.1983V27.8926C0.424201 30.2794 0.965901 32.5468 1.89376 34.6136C4.87043 31.4782 11.8535 29.2813 19.9898 29.2813C28.126 29.2813 35.0984 31.4782 38.0804 34.6136C39.019 32.5468 39.5553 30.274 39.6251 27.8926V27.1929C39.5446 16.9244 30.7755 8.45137 19.9951 8.45679H19.9844Z" fill="#0088D0"/>
<path d="M19.9776 8.61938C9.22946 8.61938 0.492529 17.0436 0.390625 27.2199V27.9088C0.460349 30.2793 1.00205 32.525 1.93528 34.5863C4.90658 31.4781 11.8629 29.3029 19.9776 29.3029C28.0924 29.3029 35.0433 31.4781 38.0254 34.5863C38.9586 32.525 39.4842 30.2684 39.5539 27.9034L39.5647 27.209C39.4574 17.0327 30.7312 8.61938 19.9776 8.61938Z" fill="#008AD1"/>
<path d="M19.9787 8.7876C9.27342 8.7876 0.557943 17.1521 0.445312 27.2362V27.9251C0.515036 30.2793 1.05137 32.5251 1.99533 34.5647C4.94518 31.489 11.8907 29.3246 19.9841 29.3246C28.0774 29.3246 35.0122 31.489 37.9782 34.5647C38.9167 32.5251 39.4585 30.2739 39.5228 27.9251V27.2308C39.4102 17.1575 30.7001 8.7876 19.9841 8.7876H19.9787Z" fill="#008CD3"/>
<path d="M19.9793 8.96118C9.30079 8.96118 0.612135 17.266 0.494141 27.2525V27.9414C0.558501 30.2793 1.1002 32.5034 2.02806 34.543C4.98864 31.489 11.9128 29.3463 19.9793 29.3463C28.0458 29.3463 34.9645 31.489 37.9251 34.543C38.853 32.5034 39.3947 30.2739 39.459 27.936V27.2471C39.3303 17.266 30.647 8.95576 19.9793 8.96661V8.96118Z" fill="#008ED4"/>
<path d="M19.9725 9.13477C9.33158 9.13477 0.680463 17.38 0.541016 27.2687V27.9522C0.610739 30.2793 1.13635 32.4979 2.07494 34.5213C5.01943 31.489 11.9382 29.3626 19.9779 29.3626C28.0176 29.3626 34.9256 31.489 37.8808 34.5213C38.8194 32.4925 39.3503 30.2793 39.4147 27.9468V27.2633C39.2753 17.38 30.6134 9.13477 19.9779 9.13477H19.9725Z" fill="#0090D5"/>
<path d="M19.9628 9.30298C9.36481 9.30298 0.735151 17.4939 0.595703 27.2905V27.9631C0.643973 30.2794 1.18031 32.4817 2.1189 34.4888C5.06339 31.489 11.9446 29.3898 19.9682 29.3898C27.9918 29.3898 34.8891 31.489 37.8336 34.4888C38.7614 32.4817 39.3031 30.2794 39.3568 27.9631V27.2797C39.2066 17.4885 30.593 9.30298 19.9736 9.30298H19.9628Z" fill="#0092D7"/>
<path d="M19.9629 9.46582C9.40242 9.46582 0.79421 17.6079 0.638672 27.3123V27.9849C0.692306 30.2795 1.22328 32.4764 2.16187 34.4672C5.09563 31.4946 11.9607 29.4062 19.9629 29.4062C27.965 29.4062 34.8409 31.4946 37.7693 34.4672C38.7079 32.4656 39.2442 30.2795 39.2978 27.9849V27.3069C39.1316 17.6079 30.5394 9.47124 19.9629 9.47124V9.46582Z" fill="#0094D8"/>
<path d="M19.962 9.63379C9.43906 9.63379 0.863034 17.7162 0.691406 27.3284V27.9902C0.734313 30.2793 1.27065 32.4545 2.20924 34.4453C5.13764 31.4944 11.992 29.4277 19.9674 29.4277C27.9427 29.4277 34.8024 31.4944 37.7308 34.4453C38.6694 32.4545 39.195 30.2739 39.254 27.9902V27.3175C39.0717 17.7162 30.5117 9.63379 19.9674 9.63379H19.962Z" fill="#0097D9"/>
<path d="M19.9621 9.802C9.46594 9.802 0.922093 17.8356 0.734375 27.3501V28.0065C0.788009 30.2794 1.31898 32.4437 2.25757 34.4182C5.16452 31.4944 12.0082 29.4494 19.9621 29.4494C27.9159 29.4494 34.7489 31.4944 37.6719 34.4182C38.6105 32.4437 39.1415 30.2794 39.1897 28.0065V27.3339C38.9913 17.8302 30.4582 9.802 19.9621 9.802Z" fill="#0099DB"/>
<path d="M19.9563 9.97559C9.50308 9.97559 0.98605 17.9495 0.792969 27.3664V28.0228C0.830512 30.2794 1.35612 32.4329 2.30008 34.3965C5.20166 31.4944 12.0185 29.4711 19.9616 29.4711C27.9048 29.4711 34.7216 31.4999 37.6286 34.3965C38.5618 32.4329 39.0981 30.2794 39.141 28.0119V27.3556C38.9372 17.9441 30.4309 9.97559 19.9616 9.97559H19.9563Z" fill="#009BDC"/>
<path d="M19.9578 10.1492C9.54214 10.1492 1.04657 18.0635 0.832031 27.3827V28.0282C0.880302 30.2794 1.40055 32.422 2.3445 34.3694C5.24072 31.4999 12.0415 29.4874 19.9632 29.4874C27.8849 29.4874 34.6749 31.4999 37.5818 34.3694C38.5204 32.4166 39.0407 30.2794 39.0943 28.0282V27.3718C38.869 18.058 30.3949 10.1437 19.9685 10.1492H19.9578Z" fill="#009DDD"/>
<path d="M19.9569 10.3064C9.56269 10.3064 1.11003 18.1773 0.884766 27.4043V28.0444C0.916946 30.2738 1.44792 32.4057 2.38115 34.3422C5.27736 31.4998 12.0567 29.509 19.9569 29.509C27.8571 29.509 34.6364 31.4998 37.5219 34.3422C38.4659 32.4057 38.9915 30.2738 39.029 28.0444V27.3935C38.7931 18.1719 30.3511 10.3064 19.9569 10.3064Z" fill="#009FDF"/>
<path d="M19.9472 10.48C9.60129 10.48 1.17544 18.2912 0.939453 27.4206V28.0661C0.96627 30.2793 1.49724 32.4002 2.43583 34.3259C5.32132 31.5161 12.0899 29.5307 19.9526 29.5307C27.8153 29.5307 34.5999 31.5106 37.4801 34.3259C38.4187 32.4002 38.9496 30.2793 38.9872 28.0661L38.9765 27.4152C38.7405 18.2858 30.3146 10.4854 19.958 10.4854L19.9472 10.48Z" fill="#00A2E0"/>
<path d="M19.9473 10.6536C9.6389 10.6536 1.2345 18.3997 0.982422 27.4423V28.0824C1.00388 30.2793 1.53485 32.3894 2.46807 34.2988C5.34284 31.5106 12.106 29.5578 19.9419 29.5578C27.7778 29.5578 34.541 31.5106 37.4319 34.2988C38.3705 32.3894 38.8853 30.2793 38.9283 28.0769V27.4314C38.6654 18.4051 30.2664 10.6536 19.9473 10.659V10.6536Z" fill="#00A4E1"/>
<path d="M19.9464 10.8164C9.67018 10.8164 1.30332 18.5191 1.03516 27.4532V28.0879C1.06197 30.2794 1.58758 32.3678 2.52081 34.2664C5.38485 31.5107 12.1105 29.5796 19.9464 29.5796C27.7823 29.5796 34.5079 31.5162 37.3773 34.2664C38.3213 32.3732 38.8415 30.2794 38.863 28.0879V27.4424C38.5948 18.5137 30.2333 10.8164 19.9464 10.8164Z" fill="#00A6E3"/>
<path d="M19.946 10.99C9.70192 10.99 1.35116 18.6331 1.08299 27.4749L1.07227 28.1096C1.10445 30.2794 1.61933 32.3624 2.55792 34.2447C5.42732 31.5107 12.1315 29.6013 19.946 29.6013C27.7604 29.6013 34.4646 31.5162 37.3286 34.2447C38.2726 32.357 38.7875 30.2794 38.8143 28.1042V27.4641C38.53 18.6276 30.19 10.99 19.946 10.9954V10.99Z" fill="#00A9E4"/>
<path d="M19.9402 11.1582C9.74443 11.1582 1.40975 18.747 1.13086 27.4858V28.1151C1.13622 30.274 1.67256 32.3516 2.60579 34.2176C5.44837 31.5108 12.1472 29.6122 19.9348 29.6122C27.7224 29.6122 34.4213 31.5108 37.2639 34.2176C38.2078 32.3407 38.7388 30.274 38.7442 28.1151V27.475C38.4599 18.7416 30.1413 11.1582 19.9295 11.1582H19.9402Z" fill="#00ABE5"/>
<path d="M19.9407 11.3264C9.76644 11.3264 1.48004 18.8556 1.17969 27.513V28.1368C1.19578 30.2795 1.7053 32.3354 2.65461 34.196C5.4972 31.5163 12.1746 29.6394 19.9407 29.6394C27.7069 29.6394 34.3843 31.5163 37.2376 34.196C38.1655 32.3354 38.6857 30.2795 38.7018 28.1368V27.4967C38.3907 18.861 30.1151 11.3264 19.9407 11.3264Z" fill="#00ADE7"/>
<path d="M19.9408 11.4944C9.80405 11.4944 1.53373 18.9693 1.22266 27.5237V28.1475C1.23338 30.2793 1.75899 32.3243 2.69758 34.1741C5.5348 31.5161 12.1854 29.6609 19.9354 29.6609C27.6855 29.6609 34.3361 31.5215 37.1679 34.1741C38.1119 32.3243 38.6375 30.2793 38.6429 28.1475V27.5183C38.3103 18.9693 30.0615 11.4944 19.9301 11.4944H19.9408Z" fill="#00B0E8"/>
<path d="M19.9414 11.6626C9.83678 11.6626 1.60401 19.0887 1.28757 27.5454L1.27148 28.1638C1.29294 30.2794 1.80246 32.319 2.74105 34.147C5.57291 31.5216 12.202 29.6827 19.9414 29.6827C27.6807 29.6827 34.2884 31.5216 37.1363 34.147C38.0696 32.3135 38.5898 30.2794 38.6005 28.1638L38.5898 27.5346C38.268 19.0833 30.0406 11.6626 19.9414 11.6626Z" fill="#00B2EA"/>
<path d="M19.9351 11.8308C9.87879 11.8308 1.66747 19.2027 1.32422 27.5672V28.1801C1.32422 30.2848 1.84447 32.3082 2.78842 34.1254C5.61491 31.5216 12.2279 29.7044 19.9351 29.7044C27.6423 29.7044 34.2499 31.5216 37.0764 34.1254C38.0257 32.2973 38.5353 30.2848 38.5514 28.1801L38.5353 27.5618C38.2027 19.2027 29.9968 11.8362 19.9351 11.8362V11.8308Z" fill="#11B5EB"/>
<path d="M19.9347 11.999C9.89981 11.999 1.72067 19.3112 1.37742 27.5781L1.36133 28.1856C1.37742 30.2795 1.8923 32.2865 2.83625 34.0983C5.64666 31.5217 12.2543 29.7207 19.9347 29.7207C27.615 29.7207 34.2173 31.5162 37.0224 34.0983C37.9717 32.2811 38.4866 30.2795 38.4919 28.1856V27.5727C38.1272 19.3058 29.9642 11.999 19.9347 11.999Z" fill="#1EB7EC"/>
<path d="M19.9352 12.167C9.93255 12.167 1.78559 19.425 1.42625 27.5996L1.41016 28.2018C1.41552 30.2793 1.93577 32.2755 2.87972 34.071C5.69012 31.5215 12.2656 29.7423 19.9352 29.7423C27.6048 29.7423 34.175 31.5215 36.9854 34.071C37.9186 32.2755 38.4335 30.2848 38.4389 28.2018L38.4281 27.5834C38.0634 19.4141 29.9218 12.1616 19.9352 12.1616V12.167Z" fill="#27BAEE"/>
<path d="M19.9256 12.3352C9.98187 12.3352 1.85101 19.5443 1.48093 27.6159L1.46484 28.218C1.46484 30.2902 1.99045 32.2647 2.91832 34.0548C5.71799 31.527 12.2828 29.764 19.9202 29.764C27.5576 29.764 34.1278 31.527 36.9221 34.0548C37.8714 32.2647 38.3648 30.2848 38.3809 28.218L38.3648 27.6105C37.984 19.5443 29.88 12.3406 19.9148 12.3406L19.9256 12.3352Z" fill="#2FBCEF"/>
<path d="M19.9134 29.7857C27.5455 29.7857 34.0995 31.527 36.8831 34.0331C37.8217 32.2484 38.3312 30.2848 38.3312 28.2343C38.3312 20.0108 30.0985 12.5088 19.9134 12.5088C9.7284 12.5088 1.51172 20.0162 1.51172 28.2289C1.51172 30.2848 2.0266 32.2484 2.96519 34.0331C5.76487 31.527 12.2921 29.7857 19.9134 29.7857Z" fill="#37BEF0"/>
<path d="M19.9135 29.8401C27.5294 29.8401 34.0781 31.5597 36.851 34.0495C37.8003 32.2811 38.3152 30.3337 38.3152 28.2941C38.3152 20.1249 30.0824 12.6663 19.9135 12.6663C9.74452 12.6663 1.5332 20.1303 1.5332 28.2941C1.5332 30.3337 2.04809 32.2865 2.98668 34.0495C5.77026 31.5597 12.3189 29.8401 19.9135 29.8401Z" fill="#45C0F0"/>
<path d="M19.914 29.8889C27.5246 29.8889 34.0465 31.6084 36.8354 34.0765C37.774 32.3244 38.2889 30.3825 38.2889 28.3537C38.2889 20.2442 30.0668 12.8235 19.914 12.8235C9.76114 12.8235 1.56055 20.2387 1.56055 28.3483C1.56055 30.3771 2.07543 32.3136 3.00866 34.0711C5.79761 31.603 12.3248 29.8834 19.914 29.8834V29.8889Z" fill="#51C2F1"/>
<path d="M19.914 29.9322C27.5139 29.9322 34.0304 31.6409 36.814 34.0927C37.7526 32.3515 38.2728 30.4312 38.2728 28.4133C38.2728 20.3526 30.0615 12.9807 19.914 12.9807C9.76653 12.9807 1.58203 20.3526 1.58203 28.4133C1.58203 30.4204 2.10228 32.3515 3.0355 34.0982C5.81373 31.6463 12.3356 29.9322 19.9087 29.9322H19.914Z" fill="#5BC4F1"/>
<path d="M19.9141 29.9756C27.5086 29.9756 34.009 31.6789 36.7818 34.109C37.7204 32.3732 38.2353 30.4638 38.2353 28.4676C38.2353 20.4665 30.0401 13.1272 19.9087 13.1272C9.77729 13.1272 1.60352 20.4665 1.60352 28.4676C1.60352 30.4638 2.12376 32.384 3.05163 34.109C5.82449 31.6734 12.341 29.9756 19.9087 29.9756H19.9141Z" fill="#64C7F2"/>
<path d="M19.9136 30.0297C27.4813 30.0297 33.9978 31.7168 36.7653 34.1306C37.6986 32.4111 38.2081 30.5125 38.2081 28.5272C38.2081 20.5695 30.0236 13.2844 19.9136 13.2844C9.80367 13.2844 1.64062 20.5695 1.64062 28.5272C1.64062 30.5071 2.13942 32.4165 3.07264 34.1306C5.85623 31.7113 12.3566 30.0297 19.9136 30.0297Z" fill="#6DC9F3"/>
<path d="M19.9151 30.0733C27.4828 30.0733 33.9832 31.7495 36.7454 34.1525C37.6786 32.4438 38.1935 30.5561 38.1935 28.5816C38.1935 20.6836 30.009 13.4419 19.9151 13.4419C9.82125 13.4419 1.6582 20.6836 1.6582 28.587C1.6582 30.5561 2.17845 32.4492 3.09559 34.1579C5.87381 31.7549 12.3742 30.0787 19.9151 30.0787V30.0733Z" fill="#75CBF3"/>
<path d="M19.9137 30.1167C27.4707 30.1167 33.9603 31.7874 36.7225 34.1742C37.6503 32.4763 38.1599 30.6049 38.1599 28.6412C38.1599 20.8029 30.0022 13.5938 19.9137 13.5938C9.82519 13.5938 1.68359 20.8029 1.68359 28.6412C1.68359 30.6049 2.19848 32.4817 3.12634 34.1742C5.88847 31.7928 12.3781 30.1275 19.9137 30.1167Z" fill="#7DCDF4"/>
<path d="M19.9137 30.1763C27.4653 30.1763 33.9389 31.8307 36.6957 34.1904C37.6289 32.5088 38.1331 30.6536 38.1331 28.7008C38.1331 20.9113 29.9808 13.751 19.9137 13.751C9.84667 13.751 1.70508 20.9113 1.70508 28.7008C1.70508 30.6536 2.2146 32.5142 3.14246 34.1958C5.9046 31.8253 12.3782 30.1763 19.9137 30.1763Z" fill="#84D0F4"/>
<path d="M19.9133 30.2198C27.4488 30.2198 33.917 31.8634 36.6684 34.2176C37.5963 32.5469 38.1112 30.6917 38.1112 28.7661C38.1112 21.0253 29.9696 13.9084 19.9133 13.9084C9.85696 13.9084 1.74219 21.0253 1.74219 28.7606C1.74219 30.7026 2.24098 32.5469 3.16884 34.2176C5.92025 31.8689 12.3938 30.2198 19.9133 30.2198Z" fill="#8BD2F5"/>
<path d="M19.9148 30.2686C27.4449 30.2686 33.9024 31.9014 36.6431 34.2339C37.5763 32.574 38.0966 30.7405 38.0966 28.8203C38.0966 21.1338 29.9604 14.0603 19.9148 14.0603C9.86918 14.0603 1.75977 21.1392 1.75977 28.8257C1.75977 30.7405 2.26929 32.5794 3.19715 34.2393C5.95392 31.9068 12.4114 30.2795 19.9148 30.274V30.2686Z" fill="#92D4F5"/>
<path d="M19.9148 30.3172C27.4396 30.3172 33.8703 31.9446 36.6324 34.2554C37.5496 32.6064 38.0644 30.7892 38.0644 28.8852C38.0644 21.2475 29.9389 14.2283 19.9148 14.2283C9.89066 14.2283 1.78125 21.2475 1.78125 28.8852C1.78125 30.7892 2.29613 32.6118 3.21863 34.2662C5.97004 31.9446 12.4275 30.3281 19.9148 30.3172Z" fill="#99D7F6"/>
<path d="M19.9148 30.3716C27.4235 30.3716 33.8596 31.9826 36.6056 34.2826C37.5281 32.639 38.0323 30.8326 38.0323 28.9395C38.0323 21.3669 29.9336 14.3694 19.9148 14.3694C9.89606 14.3694 1.80273 21.3669 1.80273 28.9395C1.80273 30.8381 2.31225 32.6498 3.24012 34.2826C5.99153 31.9772 12.4329 30.3716 19.9148 30.3716Z" fill="#9FD9F7"/>
<path d="M19.9144 30.4149C27.4124 30.4149 33.8377 32.0151 36.5837 34.3042C37.5116 32.6769 38.0158 30.8814 38.0158 28.9937C38.0158 21.4754 29.9171 14.5266 19.9144 14.5266C9.91171 14.5266 1.83984 21.4754 1.83984 28.9937C1.83984 30.8814 2.33864 32.6769 3.2665 34.3042C6.00718 32.0151 12.4325 30.4149 19.909 30.4149H19.9144Z" fill="#A5DBF7"/>
<path d="M19.9144 30.4638C27.3963 30.4638 33.8163 32.0532 36.5516 34.3206C37.4741 32.7042 37.9836 30.9249 37.9836 29.0535C37.9836 21.5894 29.901 14.6841 19.9144 14.6841C9.92783 14.6841 1.86133 21.5894 1.86133 29.0535C1.86133 30.9249 2.37085 32.7042 3.28262 34.3206C6.03403 32.0532 12.4486 30.4638 19.9144 30.4638Z" fill="#ABDDF8"/>
<path d="M19.914 30.5126C27.3905 30.5126 33.7944 32.0912 36.5404 34.3477C37.4522 32.7421 37.9671 30.9737 37.9671 29.1131C37.9671 21.7033 29.8845 14.8359 19.914 14.8359C9.94346 14.8359 1.87695 21.7033 1.87695 29.1131C1.87695 30.9737 2.39184 32.7421 3.30897 34.3477C6.04965 32.0912 12.4642 30.5126 19.914 30.5126Z" fill="#B1DFF8"/>
<path d="M19.9135 30.5616C27.374 30.5616 33.7725 32.1292 36.5185 34.3641C37.4356 32.7693 37.9344 31.0172 37.9344 29.1729C37.9344 21.8173 29.8733 14.9988 19.9135 14.9988C9.95375 14.9988 1.91406 21.8119 1.91406 29.1729C1.91406 31.0172 2.42358 32.7802 3.32999 34.3641C6.06531 32.1292 12.4745 30.5616 19.9135 30.5616Z" fill="#B7E1F9"/>
<path d="M19.9257 30.6158C27.3701 30.6158 33.7632 32.1672 36.4878 34.3858C37.4103 32.8018 37.9145 31.0552 37.9145 29.2325C37.9145 21.9204 29.8641 15.1506 19.9257 15.1506C9.98742 15.1506 1.93164 21.9258 1.93164 29.2325C1.93164 31.0552 2.44116 32.8073 3.35293 34.3858C6.08289 32.1672 12.476 30.6158 19.9257 30.6158Z" fill="#BCE4F9"/>
<path d="M19.9248 30.6591C27.3584 30.6591 33.7516 32.1996 36.4708 34.4074C37.3826 32.8397 37.8921 31.1039 37.8921 29.2921C37.8921 22.0342 29.8417 15.3079 19.9248 15.3079C10.0079 15.3079 1.96289 22.0342 1.96289 29.2867C1.96289 31.1093 2.45632 32.8397 3.36809 34.4074C6.10877 32.1996 12.4858 30.6645 19.9248 30.6591Z" fill="#C1E6FA"/>
<path d="M19.9258 30.7079C27.3434 30.7079 33.7204 32.2376 36.445 34.4236C37.3568 32.8668 37.8609 31.1527 37.8609 29.3463C37.8609 22.1427 29.832 15.4597 19.9258 15.4597C10.0197 15.4597 1.99609 22.1427 1.99609 29.3463C1.99609 31.1527 2.48952 32.8668 3.39593 34.4236C6.13125 32.2376 12.5083 30.7079 19.9312 30.7079H19.9258Z" fill="#C7E8FA"/>
<path d="M19.9244 30.7568C27.3365 30.7568 33.6975 32.2757 36.4221 34.4509C37.3339 32.9049 37.838 31.1962 37.838 29.4115C37.838 22.2621 29.8252 15.6226 19.9244 15.6226C10.0236 15.6226 2 22.2567 2 29.4115C2 31.2016 2.51488 32.9049 3.42129 34.4509C6.14052 32.2757 12.5122 30.7568 19.9244 30.7568Z" fill="#CCEAFB"/>
<path d="M19.9249 30.8002C27.3317 30.8002 33.6766 32.3191 36.3904 34.4672C37.3076 32.932 37.8117 31.2396 37.8117 29.4658C37.8117 22.3706 29.8042 15.769 19.9249 15.769C10.0456 15.769 2.02734 22.3706 2.02734 29.4712C2.02734 31.2505 2.5315 32.9375 3.43791 34.4726C6.1625 32.3191 12.5235 30.8057 19.9249 30.8057V30.8002Z" fill="#D1ECFB"/>
<path d="M19.924 30.8544C27.3201 30.8544 33.6649 32.3516 36.3734 34.4888C37.2745 32.9646 37.7894 31.2884 37.7894 29.5255C37.7894 22.4845 29.7872 15.9209 19.924 15.9209C10.0607 15.9209 2.05859 22.4845 2.05859 29.5255C2.05859 31.2884 2.55739 32.97 3.45843 34.4888C6.1723 32.3516 12.5333 30.8544 19.924 30.8544Z" fill="#D6EEFB"/>
<path d="M19.924 30.9032C27.304 30.9032 33.6489 32.3895 36.352 34.5105C37.2584 32.997 37.7679 31.3371 37.7679 29.585C37.7679 22.5983 29.7765 16.0781 19.9294 16.0781C10.0822 16.0781 2.08008 22.5983 2.08008 29.585C2.08008 31.3317 2.58423 32.997 3.48528 34.5105C6.19914 32.3895 12.544 30.9032 19.924 30.9032Z" fill="#DBF0FC"/>
<path d="M19.925 30.9465C27.2943 30.9465 33.6284 32.422 36.3208 34.5321C37.238 33.0403 37.7368 31.3805 37.7368 29.6446C37.7368 22.7067 29.7561 16.2354 19.925 16.2354C10.094 16.2354 2.11328 22.7122 2.11328 29.6446C2.11328 31.3805 2.61207 33.0403 3.51312 34.5429C6.21626 32.4274 12.5611 30.9519 19.9304 30.9519L19.925 30.9465Z" fill="#E0F2FC"/>
<path d="M19.9251 31.0009C27.289 31.0009 33.6016 32.4601 36.3101 34.5539C37.2005 33.0622 37.71 31.4294 37.71 29.7045C37.71 22.8208 29.7454 16.3928 19.9251 16.3928C10.1047 16.3928 2.13477 22.8208 2.13477 29.699C2.13477 31.4294 2.63356 33.0676 3.52924 34.5539C6.23774 32.4601 12.5612 31.0009 19.9251 31.0009Z" fill="#E5F4FD"/>
<path d="M19.9256 31.0497C27.2788 31.0497 33.5754 32.498 36.2892 34.5756C37.1742 33.1056 37.6891 31.4728 37.6891 29.7641C37.6891 22.9401 29.7352 16.5447 19.9256 16.5447C10.116 16.5447 2.16211 22.9347 2.16211 29.7587C2.16211 31.4728 2.65554 33.1001 3.55122 34.5702C6.25972 32.498 12.5724 31.0443 19.9256 31.0443V31.0497Z" fill="#E9F6FD"/>
<path d="M19.9256 31.0984C27.2734 31.0984 33.57 32.5359 36.2624 34.5972C37.1635 33.1326 37.6676 31.5215 37.6676 29.8183C37.6676 23.0431 29.7138 16.7019 19.9256 16.7019C10.1375 16.7019 2.18359 23.0485 2.18359 29.8128C2.18359 31.5161 2.67166 33.1326 3.57807 34.5918C6.28657 32.5305 12.5832 31.093 19.9256 31.093V31.0984Z" fill="#EEF8FE"/>
<path d="M19.9256 31.1474C27.252 31.1474 33.5432 32.574 36.241 34.619C37.1421 33.1598 37.6409 31.5596 37.6409 29.8726C37.6409 23.1571 29.7138 16.8647 19.931 16.8647C10.1482 16.8647 2.20508 23.1625 2.20508 29.8726C2.20508 31.565 2.70387 33.1598 3.59955 34.619C6.29733 32.5794 12.5939 31.1474 19.9256 31.1474Z" fill="#F2FAFE"/>
<path d="M19.9257 31.1908C27.252 31.1908 33.5272 32.612 36.2089 34.6353C37.1099 33.1978 37.6141 31.603 37.6141 29.9377C37.6141 23.2711 29.6924 17.0112 19.9257 17.0112C10.159 17.0112 2.22656 23.2765 2.22656 29.9377C2.22656 31.6085 2.73072 33.1978 3.6264 34.6353C6.31881 32.6066 12.6154 31.1854 19.931 31.1854L19.9257 31.1908Z" fill="#F7FCFE"/>
<path d="M19.9247 31.2395C27.2457 31.2395 33.5102 32.6444 36.1918 34.6623C37.0768 33.2248 37.5917 31.6517 37.5917 29.9973C37.5917 23.3794 29.6754 17.1738 19.9247 17.1738C10.1741 17.1738 2.25781 23.3794 2.25781 29.9918C2.25781 31.6463 2.75661 33.2248 3.64692 34.6623C6.32861 32.6444 12.6145 31.2449 19.9247 31.2395Z" fill="#FBFDFF"/>
<path d="M19.9253 31.2884C27.2195 31.2884 33.4892 32.688 36.1709 34.6842C37.0666 33.2629 37.56 31.7007 37.56 30.0571C37.56 23.4935 29.6651 17.3313 19.9253 17.3313C10.1854 17.3313 2.28516 23.4989 2.28516 30.0517C2.28516 31.7007 2.77859 33.2575 3.66891 34.6787C6.35595 32.6825 12.6311 31.2884 19.9253 31.283V31.2884Z" fill="white"/>
</g>
<path d="M19.9132 24.741C13.5362 24.741 7.60965 25.8313 2.71289 27.6865C5.64665 34.3531 12.2543 38.9965 19.9239 38.9965C27.5936 38.9965 34.2012 34.3531 37.1457 27.6865C32.249 25.8313 26.3063 24.741 19.9132 24.741Z" fill="#007BC7"/>
</g>
</g>
<defs>
<clipPath id="clip0_2356_20910">
<rect width="40" height="40" fill="white"/>
</clipPath>
<clipPath id="clip1_2356_20910">
<rect width="40" height="40" fill="white"/>
</clipPath>
</defs>
</svg>
