<svg width="40" height="40" viewBox="0 0 40 40" fill="none" xmlns="http://www.w3.org/2000/svg">
<g id="icon_profile">
<rect width="40" height="40" rx="20" fill="#FFCFE3"/>
<g id="Union">
<path d="M24.4078 21.9497C23.095 23.2625 21.3145 24 19.458 24C17.6015 24 15.821 23.2625 14.5083 21.9497C13.1955 20.637 12.458 18.8565 12.458 17C12.458 15.1435 13.1955 13.363 14.5083 12.0503C15.821 10.7375 17.6015 10 19.458 10C21.3145 10 23.095 10.7375 24.4078 12.0503C25.7205 13.363 26.458 15.1435 26.458 17C26.458 18.8565 25.7205 20.637 24.4078 21.9497Z" fill="#FB247F"/>
<path d="M20 40C28.2843 40 35 36.866 35 33C35 29.134 28.2843 26 20 26C11.7157 26 5 29.134 5 33C5 36.866 11.7157 40 20 40Z" fill="#FB247F"/>
</g>
</g>
</svg>
