<svg width="40" height="40" viewBox="0 0 40 40" fill="none" xmlns="http://www.w3.org/2000/svg">
<path d="M33.333 20.8384V11.6667C33.333 11.2247 33.1574 10.8007 32.8449 10.4882C32.5323 10.1756 32.1084 10 31.6663 10H8.33301C7.89098 10 7.46706 10.1756 7.1545 10.4882C6.84194 10.8007 6.66634 11.2247 6.66634 11.6667V28.3334C6.66634 28.7754 6.84194 29.1993 7.1545 29.5119C7.46706 29.8244 7.89098 30 8.33301 30H14.173L21.4897 17.7967C21.8802 17.1457 22.4137 16.5922 23.05 16.1782C23.6862 15.7641 24.4083 15.5003 25.1616 15.4068C25.9149 15.3134 26.6797 15.3926 27.3978 15.6386C28.1159 15.8846 28.7686 16.2909 29.3063 16.8267L33.333 20.8384ZM33.333 25.5434L26.953 19.1867C26.7736 19.0083 26.556 18.873 26.3166 18.7912C26.0772 18.7094 25.8224 18.6832 25.5713 18.7145C25.3203 18.7458 25.0797 18.8339 24.8677 18.972C24.6558 19.1101 24.478 19.2947 24.348 19.5117L18.0597 30H31.6663C32.1084 30 32.5323 29.8244 32.8449 29.5119C33.1574 29.1993 33.333 28.7754 33.333 28.3334V25.5434ZM8.33301 6.66669H31.6663C32.9924 6.66669 34.2642 7.19347 35.2019 8.13115C36.1396 9.06884 36.6663 10.3406 36.6663 11.6667V28.3334C36.6663 29.6594 36.1396 30.9312 35.2019 31.8689C34.2642 32.8066 32.9924 33.3334 31.6663 33.3334H8.33301C7.00693 33.3334 5.73516 32.8066 4.79747 31.8689C3.85979 30.9312 3.33301 29.6594 3.33301 28.3334L3.33301 11.6667C3.33301 10.3406 3.85979 9.06884 4.79747 8.13115C5.73516 7.19347 7.00693 6.66669 8.33301 6.66669V6.66669ZM13.333 21.6667C12.0069 21.6667 10.7352 21.1399 9.79747 20.2022C8.85979 19.2645 8.33301 17.9928 8.33301 16.6667C8.33301 15.3406 8.85979 14.0688 9.79747 13.1312C10.7352 12.1935 12.0069 11.6667 13.333 11.6667C14.6591 11.6667 15.9309 12.1935 16.8685 13.1312C17.8062 14.0688 18.333 15.3406 18.333 16.6667C18.333 17.9928 17.8062 19.2645 16.8685 20.2022C15.9309 21.1399 14.6591 21.6667 13.333 21.6667ZM13.333 18.3334C13.775 18.3334 14.199 18.1578 14.5115 17.8452C14.8241 17.5326 14.9997 17.1087 14.9997 16.6667C14.9997 16.2247 14.8241 15.8007 14.5115 15.4882C14.199 15.1756 13.775 15 13.333 15C12.891 15 12.4671 15.1756 12.1545 15.4882C11.8419 15.8007 11.6663 16.2247 11.6663 16.6667C11.6663 17.1087 11.8419 17.5326 12.1545 17.8452C12.4671 18.1578 12.891 18.3334 13.333 18.3334Z" fill="#3E3E3E"/>
</svg>
