<svg width="40" height="40" viewBox="0 0 40 40" fill="none" xmlns="http://www.w3.org/2000/svg">
<g clip-path="url(#clip0_2356_20920)">
<path d="M36.1887 23.1853C34.4222 27.6861 31.4602 28.9575 31.4602 28.9575C40.1801 19.915 34.8538 9.49235 34.8538 9.49235C33.5654 7.16034 35.2058 6.14051 35.2058 6.14051C31.4602 7.10595 32.629 10.2742 32.629 10.2742C34.5085 14.8567 34.13 18.5892 33.4924 20.8941L32.2571 20.187L32.2771 20.1598C32.2771 20.1598 35.1992 8.36374 23.2716 4.23003V2H20.7479V16.6176L32.4497 23.4436C32.2372 23.8856 32.0114 24.3003 31.779 24.7014L20.024 17.7326L8.2226 24.7014C7.99016 24.3071 7.76435 23.8924 7.54519 23.4436L19.247 16.6176V2H16.73V4.22323C4.79574 8.35694 7.72451 20.1462 7.72451 20.1462L7.74443 20.1734L6.50917 20.8805C5.87161 18.5756 5.49306 14.8431 7.37252 10.2606C7.37252 10.2606 8.54138 7.08555 4.79573 6.12691C4.79573 6.12691 6.42947 7.14674 5.14772 9.47875C5.14772 9.47875 -0.178531 19.9014 8.54138 28.9439C8.54138 28.9439 5.5794 27.6725 3.80619 23.1717C3.80619 23.1717 2.80337 20.9756 -0.00585938 21.4516L1.67437 23.9331C1.67437 23.9331 4.20467 32.1734 13.9739 33.4312V37.9864H18.7688V31.2827C18.7688 31.2827 13.675 31.2419 9.79656 26.8635L10.9986 26.1428C11.2178 26.3603 14.9169 29.8618 19.9576 29.9501H19.9908H20.0174C25.0514 29.855 28.7572 26.3535 28.983 26.136L30.1851 26.8567C26.3 31.2351 21.2128 31.2759 21.2128 31.2759V37.9796H26.0144V33.4244C35.7836 32.1666 38.3139 23.9263 38.3139 23.9263C38.9315 21.9343 40.0008 21.4448 40.0008 21.4448C37.1915 20.9688 36.1887 23.1649 36.1887 23.1649M29.9394 18.8272L29.9261 18.8408L23.3247 15.0606L23.2849 6.97677H23.3247C23.3247 6.97677 31.2809 9.1864 29.9394 18.834M16.6769 6.96997H16.7167L16.6769 15.0538L10.0689 18.834V18.8204C8.71405 9.1728 16.6769 6.96317 16.6769 6.96317M26.5988 24.7354L26.5457 24.7014C24.1881 26.5983 21.9433 27.2306 20.0041 27.2306C18.0649 27.2306 15.8135 26.5983 13.4625 24.7014L13.4027 24.7354V24.7218L20.024 20.7785L26.6055 24.7218V24.7354H26.5988Z" fill="#0061AF"/>
</g>
<defs>
<clipPath id="clip0_2356_20920">
<rect width="40" height="36" fill="white" transform="translate(0 2)"/>
</clipPath>
</defs>
</svg>
