<svg width="24" height="24" viewBox="0 0 24 24" fill="none" xmlns="http://www.w3.org/2000/svg">
<g id="icon_time">
<path id="Vector" d="M12.7 11.7102V11.6688V8.00298L12.6948 7.91534C12.6741 7.74613 12.5925 7.59022 12.465 7.4769C12.3369 7.36297 12.1714 7.30002 12 7.3C11.8143 7.3 11.6363 7.37375 11.505 7.50503C11.3737 7.6363 11.3 7.81435 11.3 8V11.9966L11.3067 12.0947C11.3274 12.2462 11.397 12.3867 11.5051 12.4949C11.5051 12.4949 11.5051 12.4949 11.5051 12.4949L13.9029 14.8927L13.9733 14.9548C14.1136 15.0623 14.2893 15.1127 14.4653 15.096C14.6424 15.0791 14.8064 14.9955 14.924 14.8621C15.0416 14.7287 15.1041 14.5555 15.0986 14.3778C15.0932 14.2001 15.0204 14.0311 14.8949 13.9051L12.7 11.7102ZM12.7 11.7102L12.7293 11.7395L14.8948 13.905L12.7 11.7102ZM12 4.1C16.3632 4.1 19.9 7.63683 19.9 12C19.9 16.3632 16.3632 19.9 12 19.9C7.63683 19.9 4.1 16.3632 4.1 12C4.1 7.63683 7.63683 4.1 12 4.1ZM12 5.5C10.2761 5.5 8.62279 6.18482 7.40381 7.40381C6.18482 8.62279 5.5 10.2761 5.5 12C5.5 13.7239 6.18482 15.3772 7.40381 16.5962C8.62279 17.8152 10.2761 18.5 12 18.5C13.7239 18.5 15.3772 17.8152 16.5962 16.5962C17.8152 15.3772 18.5 13.7239 18.5 12C18.5 10.2761 17.8152 8.62279 16.5962 7.40381C15.3772 6.18482 13.7239 5.5 12 5.5Z" fill="#EEEEEE" stroke="#3E3E3E" stroke-width="0.2"/>
</g>
</svg>
