<svg width="40" height="40" viewBox="0 0 40 40" fill="none" xmlns="http://www.w3.org/2000/svg">
<g clip-path="url(#clip0_2356_20890)">
<path d="M26.4904 22.9899C26.4004 22.4499 26.2504 21.9299 26.0304 21.4399C25.3504 19.9599 24.3904 18.7199 22.9704 17.8899C20.7504 16.5899 18.0704 16.5999 15.8704 17.9299C14.8804 18.5299 14.0604 19.3899 13.5304 20.4299C13.3504 20.7799 13.2104 21.1499 13.0904 21.5299C12.5104 23.3699 12.5304 25.8399 13.5804 27.5199C13.9204 28.0699 14.4104 28.5399 15.0104 28.7699C15.6104 28.9999 16.3304 28.9799 16.8704 28.6299C17.5704 28.1799 17.6904 27.3199 17.5604 26.5499C17.4004 25.5799 17.2704 24.6099 17.6304 23.6499C17.7504 23.3399 17.9104 23.0499 18.1404 22.8199C18.2804 22.6799 18.4504 22.5699 18.6304 22.4799C19.0104 22.2999 19.4404 22.2099 19.8504 22.2799C20.5804 22.3999 21.1704 22.9599 21.5004 23.6199C21.8204 24.2799 21.9104 25.0299 21.9404 25.7699C22.0904 28.9699 21.3304 32.2999 20.5104 35.3799C20.4304 35.6999 20.3404 36.0099 20.2504 36.3299C20.1804 36.5699 20.0604 36.8899 20.2104 37.1199C20.2804 37.2199 20.3804 37.2899 20.4904 37.3399C20.9704 37.5299 21.3504 37.2399 21.6704 36.9199C23.5504 35.0299 24.7504 32.5899 25.5804 30.0799C25.8904 29.1399 26.1504 28.1899 26.3304 27.2199C26.5704 25.8899 26.7104 24.3699 26.4704 22.9699" fill="#008375"/>
<path d="M39.9495 8.17005C39.9495 7.69005 39.5195 7.37005 39.0695 7.39005C38.6095 7.41005 38.1795 7.64005 37.7495 7.81005C29.4795 10.95 20.1595 11.55 11.4395 10.29C9.94955 10.07 8.43955 9.78005 6.93955 9.54005C5.99955 9.39005 5.06955 9.18005 4.12955 9.11005C3.31955 9.05005 2.31955 9.02005 1.66955 9.58005C0.809546 10.32 0.869546 11.73 1.35955 12.66C1.94955 13.78 2.96955 14.61 4.03955 15.25C5.07955 15.87 6.30955 16.52 7.54955 16.45C10.8795 16.24 14.1995 15.92 17.5095 15.49C23.1595 14.76 29.0695 14.06 34.3695 11.88C36.0995 11.16 37.8095 10.27 39.2995 9.12005C39.5695 8.92005 39.9595 8.58005 39.9595 8.19005" fill="#008375"/>
<path d="M16.2405 5.32999C16.2405 7.12999 17.7005 8.57999 19.5005 8.57999C21.3005 8.57999 22.7505 7.11999 22.7505 5.32999C22.7505 5.05999 22.6905 4.78999 22.5705 4.54999C22.2905 3.95999 21.9805 3.66999 22.0105 2.95999C22.0505 1.99999 20.8205 1.98999 20.1605 1.98999C19.4405 1.98999 18.6805 2.08999 18.0305 2.41999C17.5105 2.67999 17.0705 3.07999 16.7505 3.56999C16.4205 4.06999 16.2505 4.65999 16.2305 5.24999C16.2305 5.27999 16.2305 5.29999 16.2305 5.32999" fill="#D50037"/>
</g>
<defs>
<clipPath id="clip0_2356_20890">
<rect width="38.95" height="35.41" fill="white" transform="translate(1 2)"/>
</clipPath>
</defs>
</svg>
