<svg width="36" height="24" viewBox="0 0 36 24" fill="none" xmlns="http://www.w3.org/2000/svg">
<g id="Subtract">
<mask id="path-1-inside-1_1210_10028" fill="white">
<path fill-rule="evenodd" clip-rule="evenodd" d="M0 0V24L36 24V16C33.7909 16 32 14.2091 32 12C32 9.79086 33.7909 8 36 8V0H0Z"/>
</mask>
<path fill-rule="evenodd" clip-rule="evenodd" d="M0 0V24L36 24V16C33.7909 16 32 14.2091 32 12C32 9.79086 33.7909 8 36 8V0H0Z" fill="#0F0F0F"/>
<path d="M0 24H-1V25H5.29819e-08L0 24ZM0 0V-1H-1V0H0ZM36 24V25H37V24H36ZM36 16H37V15H36V16ZM36 8V9H37V8H36ZM36 0H37V-1H36V0ZM1 24V0H-1V24H1ZM36 23L-5.29819e-08 23L5.29819e-08 25L36 25V23ZM35 16V24H37V16H35ZM36 15C34.3431 15 33 13.6569 33 12H31C31 14.7614 33.2386 17 36 17V15ZM33 12C33 10.3431 34.3431 9 36 9V7C33.2386 7 31 9.23858 31 12H33ZM35 0V8H37V0H35ZM0 1H36V-1H0V1Z" fill="#0F0F0F" mask="url(#path-1-inside-1_1210_10028)"/>
</g>
</svg>
