<svg width="32" height="32" viewBox="0 0 32 32" fill="none" xmlns="http://www.w3.org/2000/svg">
<path fill-rule="evenodd" clip-rule="evenodd" d="M8.8 14.3332C9.79411 14.3332 10.6 13.5871 10.6 12.6666C10.6 11.7462 9.79411 11 8.8 11C7.80589 11 7 11.7462 7 12.6666C7 13.5871 7.80589 14.3332 8.8 14.3332ZM16 14.3337C16.9941 14.3337 17.8 13.5876 17.8 12.6671C17.8 11.7467 16.9941 11.0005 16 11.0005C15.0058 11.0005 14.2 11.7467 14.2 12.6671C14.2 13.5876 15.0058 14.3337 16 14.3337ZM24.9999 12.6671C24.9999 13.5876 24.194 14.3337 23.1999 14.3337C22.2058 14.3337 21.3999 13.5876 21.3999 12.6671C21.3999 11.7467 22.2058 11.0005 23.1999 11.0005C24.194 11.0005 24.9999 11.7467 24.9999 12.6671ZM16 21.0002C16.9941 21.0002 17.8 20.2541 17.8 19.3336C17.8 18.4132 16.9941 17.667 16 17.667C15.0058 17.667 14.2 18.4132 14.2 19.3336C14.2 20.2541 15.0058 21.0002 16 21.0002ZM10.6 19.3336C10.6 20.2541 9.79411 21.0002 8.8 21.0002C7.80589 21.0002 7 20.2541 7 19.3336C7 18.4132 7.80589 17.667 8.8 17.667C9.79411 17.667 10.6 18.4132 10.6 19.3336ZM23.1999 21.0002C24.194 21.0002 24.9999 20.2541 24.9999 19.3336C24.9999 18.4132 24.194 17.667 23.1999 17.667C22.2058 17.667 21.3999 18.4132 21.3999 19.3336C21.3999 20.2541 22.2058 21.0002 23.1999 21.0002Z" fill="#939393"/>
</svg>
